<svg width="24" height="24" viewBox="0 0 24 24" fill="none" xmlns="http://www.w3.org/2000/svg">
<path fill-rule="evenodd" clip-rule="evenodd" d="M7.93107 4.18079C6.96559 4.18079 6.01359 4.453 5.17025 4.96919C2.56016 6.56905 1.6416 10.1409 3.15765 12.9284C3.44133 13.4504 3.94936 14.0773 4.60169 14.7565C5.25039 15.4319 6.02687 16.1438 6.83273 16.8358C8.44427 18.2196 10.1591 19.5114 11.1723 20.2533L11.1726 20.2535C11.4154 20.4316 11.7006 20.5249 12.0003 20.5249C12.2993 20.5249 12.5851 20.432 12.8332 20.2527C13.8465 19.5107 15.5609 18.2193 17.172 16.8358C17.9779 16.1438 18.7544 15.4319 19.403 14.7565C20.0554 14.0773 20.5634 13.4505 20.847 12.9285C22.359 10.1408 21.4403 6.56886 18.8301 4.96909C17.9868 4.45297 17.0349 4.18079 16.0695 4.18079C14.6229 4.18079 13.2614 4.76452 12.2377 5.80994L12.0003 6.05247L11.7628 5.80994C10.7392 4.76452 9.37762 4.18079 7.93107 4.18079ZM4.82213 4.41558C5.76671 3.83742 6.83876 3.5293 7.93107 3.5293C9.45234 3.5293 10.8862 4.10286 12.0003 5.12715C13.1143 4.10286 14.5482 3.5293 16.0695 3.5293C17.1618 3.5293 18.2338 3.83742 19.1784 4.41558C22.1006 6.20659 23.0964 10.1624 21.4291 13.2361C21.1035 13.8354 20.5471 14.5125 19.8824 15.2046C19.214 15.9005 18.4205 16.6274 17.6055 17.3272C15.9754 18.727 14.2452 20.0301 13.2259 20.7764L13.2244 20.7775C12.8654 21.0373 12.4431 21.1764 12.0003 21.1764C11.5578 21.1764 11.1345 21.0375 10.7785 20.7762C9.75924 20.0299 8.02915 18.7269 6.3992 17.3272C5.58423 16.6274 4.79075 15.9005 4.12236 15.2046C3.45765 14.5125 2.90144 13.8357 2.57578 13.2364M4.82213 4.41558C1.89997 6.20658 0.904051 10.1626 2.57578 13.2364L4.82213 4.41558ZM5.49274 5.46839C6.23469 5.01476 7.07473 4.77287 7.93107 4.77287C9.43325 4.77287 10.823 5.48983 11.7583 6.71865L11.7592 6.7199L12.0003 7.03979L12.2413 6.7199L12.2423 6.71865C13.1776 5.48969 14.5717 4.77287 16.0695 4.77287C16.9255 4.77287 17.7658 5.01463 18.504 5.46868C20.8756 6.92097 21.6702 10.1439 20.3073 12.6478C20.0019 13.209 19.445 13.864 18.781 14.5365C18.1119 15.214 17.3143 15.9286 16.5083 16.6097C14.8959 17.9723 13.2349 19.2138 12.4672 19.7772L12.4655 19.7784C12.189 19.9787 11.8073 19.9787 11.5308 19.7784L11.5296 19.7775C10.7615 19.2159 9.10047 17.9755 7.48804 16.6128C6.68198 15.9316 5.88437 15.2168 5.21523 14.5387C4.55124 13.8658 3.99444 13.2101 3.68907 12.6479M5.8409 6.02198C3.78455 7.28512 3.06181 10.1185 4.27083 12.3397C4.53053 12.8179 5.03327 13.4204 5.68838 14.0842C6.33843 14.743 7.11973 15.4437 7.91763 16.118C9.51254 17.4659 11.159 18.6956 11.9219 19.2535C11.9656 19.2849 12.0301 19.285 12.0739 19.2538C12.8373 18.6936 14.4837 17.4628 16.0787 16.1149C16.8766 15.4406 17.6579 14.7401 18.308 14.0818C18.9632 13.4184 19.4658 12.8169 19.7255 12.3397C20.9347 10.1182 20.2114 7.28085 18.1555 6.02206L18.155 6.0217C17.5186 5.63024 16.7988 5.42437 16.0695 5.42437C14.7929 5.42437 13.5896 6.0338 12.7708 7.10921C12.7706 7.10942 12.7705 7.10964 12.7703 7.10985L12.0003 8.13177L11.2302 7.10985C11.2301 7.10962 11.2299 7.10939 11.2297 7.10916C10.4108 6.03364 9.2117 5.42437 7.93107 5.42437C7.20202 5.42437 6.48198 5.6301 5.8409 6.02198ZM5.49274 5.46839L5.49217 5.46874L5.49274 5.46839ZM5.49217 5.46874C3.12114 6.92494 2.32601 10.1436 3.68907 12.6479L5.49217 5.46874Z" fill="#0C0C0C"/>
<path d="M11.9989 20.8235C11.6287 20.8235 11.2753 20.7078 10.9766 20.4888C8.94886 19.0054 4.10244 15.3155 2.88663 13.0801C1.2964 10.1588 2.25138 6.40697 5.01114 4.71699C5.90302 4.17156 6.91269 3.88232 7.93919 3.88232C9.47473 3.88232 10.9177 4.50212 11.9989 5.60537C13.0801 4.50212 14.5231 3.88232 16.0586 3.88232C17.0851 3.88232 18.0948 4.17156 18.9867 4.71699C21.7464 6.40697 22.7014 10.1588 21.1154 13.0801C19.8996 15.3155 15.0532 19.0054 13.0254 20.4888C12.7225 20.7078 12.3691 20.8235 11.9989 20.8235ZM7.93919 5.12192C7.14828 5.12192 6.36999 5.34505 5.68005 5.76651C3.4714 7.12181 2.71414 10.1382 3.99727 12.4934C5.12473 14.5677 10.1983 18.3774 11.7254 19.493C11.8853 19.6087 12.1083 19.6087 12.2681 19.493C13.7953 18.3732 18.8689 14.5635 19.9963 12.4934C21.2795 10.1382 20.5222 7.11768 18.3135 5.76651C17.6278 5.34505 16.8495 5.12192 16.0586 5.12192C14.6745 5.12192 13.3788 5.78304 12.5037 6.93174L11.9989 7.60112L11.4941 6.93174C10.619 5.78304 9.32748 5.12192 7.93919 5.12192Z" fill="#0C0C0C"/>
</svg>
