<svg width="24" height="24" viewBox="0 0 24 24" fill="none" xmlns="http://www.w3.org/2000/svg">
<path fill-rule="evenodd" clip-rule="evenodd" d="M22.0778 3.96387C21.8664 3.59236 21.4686 3.37744 21.0507 3.37744L2.95876 3.39059C2.45491 3.39063 2.01809 3.7018 1.84346 4.16546L1.8433 4.1659C1.71759 4.50114 1.74577 4.86685 1.91838 5.16891L1.92079 5.17313L1.92333 5.17728C1.98829 5.28358 2.07078 5.38371 2.17069 5.47187L9.05713 11.4104L10.7356 20.3263L10.7357 20.3269C10.8275 20.8209 11.2098 21.1888 11.7055 21.2673C12.1962 21.3458 12.6791 21.1147 12.9312 20.6885L12.9317 20.6879L22.0715 5.15101L21.8685 4.79834C21.8686 4.7982 21.8686 4.79806 21.8686 4.79792L22.0717 5.15061C22.2894 4.78141 22.2906 4.33027 22.0778 3.96387ZM21.2547 3.7317L21.0507 3.37744L21.2546 3.73167C21.2546 3.73168 21.2547 3.73169 21.2547 3.7317ZM10.092 9.68036L5.07895 5.35298H17.6752L10.092 9.68036ZM12.2917 17.8764L11.0697 11.3841L18.6678 7.0509L12.2917 17.8764Z" fill="#0C0C0C"/>
</svg>
