<svg width="20" height="20" viewBox="0 0 20 20" fill="none" xmlns="http://www.w3.org/2000/svg">
<circle cx="10" cy="10" r="10" fill="#0C0C0C"/>
<path d="M4.61707 16C4.459 16 4.30093 15.9399 4.18083 15.8189C3.93972 15.5778 3.93972 15.1869 4.18083 14.9458L14.9461 4.18082C15.1872 3.93973 15.5781 3.93973 15.8192 4.18082C16.0603 4.42192 16.0603 4.8128 15.8192 5.05405L5.05407 15.8189C4.93307 15.9391 4.775 16 4.61707 16Z" fill="white"/>
<path d="M15.3831 16C15.225 16 15.0671 15.9399 14.9468 15.8189L4.18083 5.05405C3.93972 4.8128 3.93972 4.42192 4.18083 4.18082C4.42193 3.93973 4.81282 3.93973 5.05407 4.18082L15.8192 14.9458C16.0603 15.1869 16.0603 15.5778 15.8192 15.8189C15.6982 15.9391 15.5402 16 15.3831 16Z" fill="white"/>
</svg>
