<svg width="24" height="24" viewBox="0 0 24 24" fill="none" xmlns="http://www.w3.org/2000/svg">
<circle cx="12" cy="12" r="10" fill="white"/>
<path d="M10.4444 15.3333C10.4444 15.7015 10.7429 16 11.1111 16H12.8889C13.2571 16 13.5556 15.7015 13.5556 15.3333C13.5556 14.9651 13.2571 14.6667 12.8889 14.6667H11.1111C10.7429 14.6667 10.4444 14.9651 10.4444 15.3333ZM5.66667 8C5.29848 8 5 8.29848 5 8.66667C5 9.03486 5.29848 9.33333 5.66667 9.33333H18.3333C18.7015 9.33333 19 9.03486 19 8.66667C19 8.29848 18.7015 8 18.3333 8H5.66667ZM7.33333 12C7.33333 12.3682 7.63181 12.6667 8 12.6667H16C16.3682 12.6667 16.6667 12.3682 16.6667 12C16.6667 11.6318 16.3682 11.3333 16 11.3333H8C7.63181 11.3333 7.33333 11.6318 7.33333 12Z" fill="#0C0C0C"/>
</svg>
