<svg width="28" height="28" viewBox="0 0 28 28" fill="none" xmlns="http://www.w3.org/2000/svg">
<path d="M17.9752 7.76157H10.0273C8.75867 7.76157 7.72656 8.79368 7.72656 10.0623V18.0102C7.72656 19.2788 8.75867 20.3112 10.0273 20.3112H17.9752C19.2438 20.3112 20.2762 19.2791 20.2762 18.0102V10.0623C20.2762 8.79368 19.2441 7.76157 17.9752 7.76157ZM14.0012 18.1676C11.7234 18.1676 9.8701 16.3143 9.8701 14.0362C9.8701 11.7584 11.7234 9.90511 14.0012 9.90511C16.2793 9.90511 18.1326 11.7584 18.1326 14.0362C18.1326 16.314 16.279 18.1676 14.0012 18.1676ZM18.2654 10.7593C17.7262 10.7593 17.2877 10.3207 17.2877 9.78181C17.2877 9.24288 17.7262 8.80437 18.2654 8.80437C18.8043 8.80437 19.2429 9.24288 19.2429 9.78181C19.2429 10.3207 18.8043 10.7593 18.2654 10.7593Z" fill="white"/>
<path d="M14.0029 11.6505C12.6879 11.6505 11.6172 12.7206 11.6172 14.0355C11.6172 15.3511 12.6879 16.4215 14.0029 16.4215C15.3184 16.4215 16.3882 15.3511 16.3882 14.0355C16.3882 12.7209 15.3181 11.6505 14.0029 11.6505Z" fill="white"/>
<path d="M14.0013 0.666656C6.6378 0.666656 0.667969 6.63649 0.667969 14C0.667969 21.3635 6.6378 27.3333 14.0013 27.3333C21.3648 27.3333 27.3346 21.3635 27.3346 14C27.3346 6.63649 21.3648 0.666656 14.0013 0.666656ZM22.0217 18.0099C22.0217 20.2414 20.2067 22.0563 17.9752 22.0563H10.0274C7.79617 22.0563 5.98092 20.2414 5.98092 18.0099V10.062C5.98092 7.83081 7.79617 6.01556 10.0274 6.01556H17.9752C20.2067 6.01556 22.0217 7.83081 22.0217 10.062V18.0099Z" fill="white"/>
</svg>
