<svg width="182" height="60" viewBox="0 0 182 60" fill="none" xmlns="http://www.w3.org/2000/svg">
<path d="M78.3525 51.9003V42.3003H83.1955C85.271 42.3003 86.3087 43.0503 86.3087 44.5503C86.3087 45.7503 85.271 46.8003 83.1955 47.4003L87.0006 51.9003H85.098L81.4658 47.5503V46.8003C83.5414 46.5003 84.5791 45.7503 84.5791 44.7003C84.5791 43.8003 84.0602 43.3503 82.8495 43.3503H79.7362V52.0503H78.3525V51.9003Z" fill="#0C0C0C"/>
<path d="M95.8217 42.3V43.3501H89.9411V46.5001H95.4758V47.5501H89.9411V51.0001H95.9947V52.0501H88.5574V42.4501H95.8217V42.3Z" fill="#0C0C0C"/>
<path d="M98.4158 51.9001H96.8591L101.529 42.3H103.086L107.929 51.9001H106.372L104.988 48.9001H101.356L101.702 47.8501H104.469L102.394 43.5001L98.4158 51.9001Z" fill="#0C0C0C"/>
<path d="M111.042 42.3V51.0001H116.923V52.0501H109.658V42.4501H111.042V42.3Z" fill="#0C0C0C"/>
<path d="M129.722 42.3V43.3501H123.841V46.5001H129.376V47.5501H123.841V51.0001H129.895V52.0501H122.458V42.4501H129.722V42.3Z" fill="#0C0C0C"/>
<path d="M131.798 51.6001V50.4001C133.009 50.7 134.219 51.0001 135.603 51.0001C137.506 51.0001 138.543 50.4001 138.543 49.2001C138.543 48.1501 137.851 47.7001 136.468 47.7001H134.911C132.663 47.7001 131.452 46.8001 131.452 45.0001C131.452 43.2001 133.009 42.3 135.949 42.3C137.333 42.3 138.543 42.4501 139.581 42.7501V43.9501C138.543 43.6501 137.333 43.3501 135.949 43.3501C133.873 43.3501 132.836 43.9501 132.836 45.1501C132.836 46.2001 133.527 46.6501 134.911 46.6501H136.295C138.716 46.6501 139.927 47.5501 139.927 49.3501C139.927 51.3001 138.543 52.2001 135.603 52.2001C134.219 52.0501 133.009 51.9001 131.798 51.6001Z" fill="#0C0C0C"/>
<path d="M149.612 42.3V43.3501H146.153V52.0501H144.769V43.3501H141.31V42.3H149.612Z" fill="#0C0C0C"/>
<path d="M150.477 51.9001H148.92L153.59 42.3H155.147L159.99 51.9001H158.433L157.05 48.9001H153.417L153.763 47.8501H156.531L154.455 43.5001L150.477 51.9001Z" fill="#0C0C0C"/>
<path d="M167.946 42.3V43.3501H164.487V52.0501H163.103V43.3501H159.644V42.3H167.946Z" fill="#0C0C0C"/>
<path d="M176.941 42.3V43.3501H171.233V46.5001H176.768V47.5501H171.233V51.0001H177.286V52.0501H169.849V42.4501H176.941V42.3Z" fill="#0C0C0C"/>
<path d="M73.5095 56.1003L74.3743 57.6003L75.2391 56.1003H75.9309L74.7202 58.0503V59.1003H74.0284V58.0503L72.8176 56.1003H73.5095Z" fill="#0C0C0C"/>
<path d="M79.3903 59.1003C79.2173 59.1003 78.8714 59.1003 78.6984 58.9503C78.5255 58.8003 78.3525 58.8003 78.1795 58.6503C78.0066 58.5003 78.0066 58.3503 77.8336 58.2003C77.8336 58.0503 77.6606 57.9003 77.6606 57.6003C77.6606 57.4503 77.6607 57.1503 77.8336 57.0003C77.8336 56.8503 78.0066 56.7003 78.1795 56.5503C78.3525 56.4003 78.5255 56.2503 78.6984 56.2503C78.8714 56.1003 79.0443 56.1003 79.3903 56.1003C79.5632 56.1003 79.9092 56.1003 80.0821 56.2503C80.2551 56.4003 80.428 56.4003 80.601 56.5503C80.774 56.7003 80.774 56.8503 80.9469 57.0003C80.9469 57.1503 81.1199 57.3003 81.1199 57.6003C81.1199 57.7503 81.1199 58.0503 80.9469 58.2003C80.9469 58.3503 80.774 58.5003 80.601 58.6503C80.428 58.8003 80.2551 58.9503 80.0821 58.9503C79.9092 59.1003 79.7362 59.1003 79.3903 59.1003ZM78.5255 57.6003C78.5255 57.7503 78.5255 57.9003 78.5255 57.9003C78.5255 58.0503 78.6984 58.2003 78.6984 58.2003C78.6984 58.3503 78.8714 58.3503 79.0443 58.3503C79.2173 58.3503 79.2173 58.5003 79.3903 58.5003C79.5632 58.5003 79.7362 58.5003 79.7362 58.3503C79.9092 58.3503 79.9092 58.2003 80.0821 58.0503C80.0821 57.9003 80.2551 57.9003 80.2551 57.7503C80.2551 57.6003 80.2551 57.4503 80.2551 57.4503C80.2551 57.3003 80.2551 57.1503 80.2551 57.1503C80.2551 57.0003 80.0821 56.8503 80.0821 56.8503C80.0821 56.7003 79.9092 56.7003 79.7362 56.7003C79.5632 56.7003 79.5632 56.5503 79.3903 56.5503C79.2173 56.5503 79.0443 56.5503 79.0443 56.7003C78.8714 56.7003 78.8714 56.8503 78.6984 57.0003C78.6984 57.1503 78.5255 57.1503 78.5255 57.3003C78.5255 57.3003 78.5255 57.4503 78.5255 57.6003Z" fill="#0C0C0C"/>
<path d="M84.9252 58.6502C85.0982 58.6502 85.2711 58.6502 85.2711 58.5002C85.4441 58.5002 85.4441 58.3502 85.617 58.3502C85.617 58.2002 85.79 58.2002 85.79 58.0502C85.79 57.9002 85.79 57.7502 85.79 57.7502V56.2502H86.4818V57.7502C86.4818 57.9002 86.4818 58.2002 86.4818 58.3502C86.4818 58.5002 86.3089 58.6502 86.1359 58.8002C85.963 58.9502 85.79 59.1002 85.617 59.1002C85.4441 59.2502 85.2711 59.2502 84.9252 59.2502C84.5793 59.2502 84.4063 59.2502 84.2333 59.1002C84.0604 58.9502 83.8874 58.9502 83.7144 58.8002C83.5415 58.6502 83.5415 58.5002 83.5415 58.3502C83.5415 58.2002 83.5415 58.0502 83.5415 57.7502V56.2502H84.2333V57.7502C84.2333 57.9002 84.2333 58.0502 84.2333 58.0502C84.2333 58.2002 84.2333 58.2002 84.4063 58.3502C84.4063 58.5002 84.5793 58.5002 84.5793 58.5002C84.7522 58.6502 84.9252 58.6502 84.9252 58.6502Z" fill="#0C0C0C"/>
<path d="M89.0764 59.1003V56.1003H90.6331C90.806 56.1003 90.979 56.1003 91.1519 56.2503C91.3249 56.2503 91.3249 56.4003 91.4979 56.5503C91.6708 56.7003 91.6708 56.7003 91.6708 56.8503C91.6708 57.0003 91.6708 57.1503 91.6708 57.1503C91.6708 57.3003 91.6708 57.4503 91.4979 57.7503C91.3249 57.9003 91.152 58.0503 90.979 58.0503L91.8438 59.1003H91.1519L90.4601 58.0503H89.7683V59.1003H89.0764ZM89.7683 57.6003H90.6331H90.806C90.806 57.6003 90.979 57.6003 90.979 57.4503C90.979 57.4503 90.979 57.3003 91.1519 57.3003V57.1503V57.0003C91.1519 57.0003 91.152 56.8503 90.979 56.8503L90.806 56.7003H90.6331H89.7683V57.6003Z" fill="#0C0C0C"/>
<path d="M99.7996 56.7002H98.7618V59.1002H98.07V56.7002H97.0322V56.2502H99.9726V56.7002H99.7996Z" fill="#0C0C0C"/>
<path d="M101.53 59.1003L102.913 56.1003H103.432L104.816 59.1003H104.124L103.778 58.3503H102.567L102.221 59.1003H101.53ZM103.259 56.7003L102.74 57.9003H103.778L103.259 56.7003Z" fill="#0C0C0C"/>
<path d="M109.486 58.8003C109.14 59.1003 108.967 59.1003 108.621 59.1003C108.448 59.1003 108.275 59.1003 107.929 58.9503C107.756 58.8003 107.583 58.8003 107.41 58.6503C107.237 58.5003 107.237 58.3503 107.064 58.2003C107.064 58.0503 106.891 57.7503 106.891 57.6003C106.891 57.4503 106.891 57.1503 107.064 57.0003C107.064 56.8503 107.237 56.7003 107.41 56.5503C107.583 56.4003 107.756 56.2503 107.929 56.2503C108.102 56.1003 108.275 56.1003 108.621 56.1003C108.967 56.1003 109.14 56.1003 109.486 56.2503C109.658 56.4003 109.831 56.5503 110.004 56.7003L109.486 57.0003C109.486 56.8503 109.313 56.7003 109.14 56.7003C108.967 56.5503 108.794 56.5503 108.621 56.5503C108.448 56.5503 108.275 56.5503 108.275 56.7003C108.102 56.7003 108.102 56.8503 107.929 56.8503C107.929 57.0003 107.756 57.0003 107.756 57.1503C107.756 57.3003 107.756 57.4503 107.756 57.6003C107.756 57.7503 107.756 57.9003 107.756 58.0503C107.756 58.2003 107.929 58.3503 107.929 58.3503C108.102 58.5003 108.102 58.5003 108.275 58.5003C108.448 58.5003 108.448 58.6503 108.621 58.6503C108.967 58.6503 109.14 58.5003 109.486 58.2003V58.0503H108.794V57.6003H110.004V59.1003H109.486V58.8003Z" fill="#0C0C0C"/>
<path d="M112.426 59.1003V56.1003H113.118V58.5003H114.847V58.9503H112.426V59.1003Z" fill="#0C0C0C"/>
<path d="M117.269 59.1003V56.1003H117.96V59.1003H117.269Z" fill="#0C0C0C"/>
<path d="M121.247 57.1503V59.1003H120.555V56.1003H121.074L122.804 58.0503V56.1003H123.496V59.1003H122.977L121.247 57.1503Z" fill="#0C0C0C"/>
<path d="M128.684 58.6503V59.1003H126.263V56.1003H128.684V56.5503H126.955V57.3003H128.338V57.7503H126.955V58.5003H128.684V58.6503Z" fill="#0C0C0C"/>
<path d="M136.295 56.8502C136.295 56.8502 136.122 56.8502 136.295 56.8502C136.122 56.7002 136.122 56.7002 135.949 56.7002C135.949 56.7002 135.776 56.7001 135.603 56.5501C135.43 56.5501 135.43 56.5501 135.257 56.5501C135.084 56.5501 134.911 56.5502 134.911 56.7002C134.738 56.7002 134.738 56.8501 134.738 57.0001V57.1501C134.738 57.1501 134.738 57.3001 134.911 57.3001C134.911 57.3001 135.084 57.3002 135.084 57.4502C135.257 57.4502 135.257 57.4502 135.43 57.6002C135.603 57.6002 135.776 57.7501 135.949 57.7501C136.122 57.7501 136.122 57.9001 136.295 57.9001C136.468 57.9001 136.468 58.0502 136.468 58.2002C136.468 58.3502 136.468 58.3501 136.468 58.5001C136.468 58.6501 136.468 58.8002 136.295 58.9502C136.295 59.1002 136.122 59.1001 135.949 59.2501C135.776 59.2501 135.776 59.4001 135.603 59.4001C135.43 59.4001 135.257 59.4001 135.084 59.4001C134.911 59.4001 134.565 59.4001 134.392 59.2501C134.219 59.2501 133.873 59.1002 133.7 58.9502L134.046 58.5001C134.046 58.5001 134.046 58.5001 134.219 58.6501C134.219 58.6501 134.392 58.8001 134.565 58.8001C134.738 58.8001 134.738 58.9502 134.911 58.9502C135.084 58.9502 135.084 58.9502 135.257 58.9502C135.603 58.9502 135.776 58.8001 135.776 58.6501V58.5001L135.603 58.3502C135.603 58.3502 135.43 58.3502 135.257 58.2002C135.084 58.2002 135.084 58.2001 134.911 58.0501C134.738 58.0501 134.565 57.9001 134.565 57.9001C134.392 57.9001 134.392 57.7501 134.219 57.7501L134.046 57.6002C134.046 57.4502 134.046 57.4501 134.046 57.3001C134.046 57.1501 134.046 57.0002 134.219 56.8502C134.219 56.7002 134.392 56.7001 134.565 56.5501C134.738 56.4001 134.738 56.4001 134.911 56.4001C135.084 56.4001 135.257 56.4001 135.43 56.4001C135.603 56.4001 135.949 56.4001 136.122 56.5501C136.295 56.5501 136.468 56.7002 136.641 56.8502H136.295Z" fill="#0C0C0C"/>
<path d="M139.062 59.1003V56.1003H140.446C140.619 56.1003 140.792 56.1003 140.965 56.2503C141.138 56.2503 141.138 56.4003 141.311 56.5503C141.483 56.7003 141.483 56.7003 141.483 56.8503C141.483 57.0003 141.483 57.1503 141.483 57.1503C141.483 57.3003 141.483 57.4503 141.483 57.4503C141.483 57.6003 141.311 57.6003 141.311 57.7503C141.138 57.9003 141.138 57.9003 140.965 57.9003C140.792 57.9003 140.619 58.0503 140.446 58.0503H139.581V59.1003H139.062ZM139.754 57.6003H140.446C140.619 57.6003 140.619 57.6003 140.792 57.4503C140.792 57.3003 140.965 57.3003 140.965 57.1503V57.0003C140.965 57.0003 140.965 56.8503 140.792 56.8503C140.792 56.8503 140.619 56.8503 140.619 56.7003H140.446H139.754V57.6003Z" fill="#0C0C0C"/>
<path d="M143.386 59.1003L144.77 56.1003H145.289L146.672 59.1003H145.98L145.634 58.3503H144.424L144.078 59.1003H143.386ZM145.116 56.7003L144.597 57.9003H145.634L145.116 56.7003Z" fill="#0C0C0C"/>
<path d="M148.748 57.6003C148.748 57.4503 148.748 57.3003 148.921 57.0003C148.921 56.8503 149.094 56.7003 149.267 56.5503C149.44 56.4003 149.613 56.2503 149.786 56.2503C149.959 56.1003 150.305 56.1003 150.478 56.1003C150.824 56.1003 150.997 56.1003 151.342 56.2503C151.515 56.4003 151.688 56.5503 151.861 56.7003L151.342 57.0003C151.342 56.8503 151.169 56.8503 151.169 56.8503L150.997 56.7003H150.824H150.651C150.478 56.7003 150.305 56.7003 150.305 56.8503C150.132 56.8503 150.132 57.0003 149.959 57.1503C149.959 57.3003 149.786 57.3003 149.786 57.4503C149.786 57.6003 149.786 57.7503 149.786 57.7503C149.786 57.9003 149.786 58.0503 149.786 58.2003C149.786 58.3503 149.959 58.5003 149.959 58.5003C149.959 58.6503 150.132 58.6503 150.305 58.6503C150.478 58.6503 150.478 58.8003 150.651 58.8003H150.824C150.824 58.8003 150.997 58.8003 150.997 58.6503L151.169 58.5003L151.342 58.3503L151.861 58.6503C151.861 58.8003 151.688 58.8003 151.688 58.9503C151.515 59.1003 151.515 59.1003 151.342 59.1003C151.17 59.1003 151.17 59.2503 150.997 59.2503C150.824 59.2503 150.651 59.2503 150.651 59.2503C150.478 59.2503 150.132 59.2503 149.959 59.1003C149.786 58.9503 149.613 58.9503 149.44 58.8003C149.267 58.6503 149.267 58.5003 149.094 58.3503C148.921 57.9003 148.748 57.7503 148.748 57.6003Z" fill="#0C0C0C"/>
<path d="M156.531 58.6503V59.1003H154.11V56.1003H156.531V56.5503H154.801V57.3003H156.185V57.7503H154.801V58.5003H156.531V58.6503Z" fill="#0C0C0C"/>
<path d="M165.006 56.1003V59.1003H164.315V57.9003H162.758V59.1003H162.066V56.1003H162.758V57.3003H164.315V56.1003H165.006Z" fill="#0C0C0C"/>
<path d="M170.022 58.6503V59.1003H167.774V56.1003H170.195V56.5503H168.466V57.3003H169.849V57.7503H168.466V58.5003H170.022V58.6503Z" fill="#0C0C0C"/>
<path d="M172.616 59.1003V56.1003H174.173C174.346 56.1003 174.519 56.1003 174.692 56.2503C174.865 56.2503 174.865 56.4003 175.038 56.5503C175.211 56.7003 175.211 56.7003 175.211 56.8503C175.211 57.0003 175.211 57.1503 175.211 57.1503C175.211 57.3003 175.211 57.4503 175.038 57.7503C174.865 57.9003 174.692 58.0503 174.519 58.0503L175.384 59.1003H174.692L174 58.0503H173.308V59.1003H172.616ZM173.308 57.6003H174.173H174.346C174.346 57.6003 174.519 57.6003 174.519 57.4503C174.519 57.4503 174.519 57.3003 174.692 57.3003V57.1503V57.0003C174.692 57.0003 174.692 56.8503 174.519 56.8503L174.346 56.7003H174.173H173.308V57.6003Z" fill="#0C0C0C"/>
<path d="M180.227 58.6503V59.1003H177.805V56.1003H180.227V56.5503H178.497V57.3003H179.881V57.7503H178.497V58.5003H180.227V58.6503Z" fill="#0C0C0C"/>
<path d="M13.3183 58.2003V39.0002L52.2345 14.4002L62.9581 21.1502L73.6817 14.4002L52.2345 0.750244L0.692139 33.4503V58.2003H13.3183Z" fill="#0C0C0C"/>
<path d="M55.3483 58.2005V39.0005L94.0916 14.4005H115.539L94.0916 0.750488L42.7222 33.4505V58.2005H55.3483Z" fill="#0C0C0C"/>
</svg>
