<svg width="24" height="24" viewBox="0 0 24 24" fill="none" xmlns="http://www.w3.org/2000/svg">
<path d="M18.7832 4.9152H18.2049V3.505C18.2049 2.67516 17.5605 2 16.7684 2H5.43648C4.64442 2 4 2.67516 4 3.505V7.26105C4 8.0909 4.64442 8.76605 5.43648 8.76605H16.7684C17.5605 8.76605 18.2049 8.0909 18.2049 7.26105V5.69645H18.7832C19.043 5.69645 19.2544 5.91719 19.2544 6.18859V10.1293C19.2544 10.4006 19.043 10.6214 18.7832 10.6214H11.1025C10.8966 10.6214 10.7296 10.7963 10.7296 11.012V13.0775H9.68951C9.48362 13.0775 9.31667 13.2524 9.31667 13.4681V20.7763C9.31667 21.451 9.84066 22 10.4847 22H11.7202C12.3642 22 12.8882 21.451 12.8882 20.7763V13.4681C12.8882 13.2524 12.7212 13.0775 12.5153 13.0775H11.4753V11.4027H18.7832C19.4541 11.4027 20 10.8314 20 10.1293V6.18859C20 5.48645 19.4542 4.9152 18.7832 4.9152ZM17.4592 7.26109C17.4592 7.6602 17.1493 7.98484 16.7684 7.98484H5.43648C5.05555 7.98484 4.74568 7.66016 4.74568 7.26109V3.505C4.74568 3.10594 5.05555 2.78125 5.43648 2.78125H16.7684C17.1493 2.78125 17.4592 3.10594 17.4592 3.505V7.26109ZM12.1425 20.7763C12.1425 21.0203 11.9531 21.2188 11.7202 21.2188H10.4847C10.2518 21.2188 10.0623 21.0203 10.0623 20.7763V13.8587H12.1425V20.7763Z" fill="#0C0C0C"/>
</svg>
