<svg width="24" height="24" viewBox="0 0 24 24" fill="none" xmlns="http://www.w3.org/2000/svg">
<path d="M16.2032 14.2847C16.0241 14.1243 15.7489 14.1399 15.5893 14.3186C14.6823 15.3321 13.3745 15.913 12.0002 15.913C10.6263 15.913 9.318 15.3321 8.41104 14.3186C8.25061 14.1399 7.97626 14.1243 7.79713 14.2847C7.618 14.4447 7.60322 14.7195 7.76322 14.8986C8.83496 16.096 10.3793 16.7826 12.0002 16.7826C13.6215 16.7826 15.1658 16.0956 16.2371 14.8986C16.3971 14.7195 16.3819 14.4447 16.2032 14.2847Z" fill="#0C0C0C"/>
<path d="M12 2C6.48609 2 2 6.48609 2 12C2 17.5139 6.48609 22 12 22C17.5139 22 22 17.5139 22 12C22 6.48609 17.5139 2 12 2ZM12 21.1304C6.96522 21.1304 2.86957 17.0348 2.86957 12C2.86957 6.96522 6.96522 2.86957 12 2.86957C17.0348 2.86957 21.1304 6.96522 21.1304 12C21.1304 17.0348 17.0348 21.1304 12 21.1304Z" fill="#0C0C0C"/>
<path d="M15.4786 8.95654C14.2799 8.95654 13.3047 9.93176 13.3047 11.1305C13.3047 11.3705 13.4995 11.5652 13.7395 11.5652C13.9795 11.5652 14.1743 11.3705 14.1743 11.1305C14.1743 10.4113 14.7595 9.82611 15.4786 9.82611C16.1977 9.82611 16.7829 10.4113 16.7829 11.1305C16.7829 11.3705 16.9777 11.5652 17.2177 11.5652C17.4577 11.5652 17.6525 11.3705 17.6525 11.1305C17.6525 9.93176 16.6773 8.95654 15.4786 8.95654Z" fill="#0C0C0C"/>
<path d="M9.82592 11.1305C9.82592 11.3705 10.0207 11.5652 10.2607 11.5652C10.5007 11.5652 10.6955 11.3705 10.6955 11.1305C10.6955 9.93176 9.72026 8.95654 8.52157 8.95654C7.32287 8.95654 6.34766 9.93176 6.34766 11.1305C6.34766 11.3705 6.54244 11.5652 6.78244 11.5652C7.02244 11.5652 7.21722 11.3705 7.21722 11.1305C7.21722 10.4113 7.80244 9.82611 8.52157 9.82611C9.2407 9.82611 9.82592 10.4113 9.82592 11.1305Z" fill="#0C0C0C"/>
</svg>
