<svg width="20" height="20" viewBox="0 0 20 20" fill="none" xmlns="http://www.w3.org/2000/svg">
<path d="M17.6668 2H2.3333C2.14912 2 2 2.14912 2 2.3333V17.6667C2 17.8509 2.14912 18 2.3333 18H17.6667C17.8509 18 18 17.8509 18 17.6667V2.3333C18.0001 2.14922 17.851 2 17.6668 2ZM17.3335 17.3334H17.3334H2.6667V2.6667H17.3335V17.3334Z" fill="#0C0C0C"/>
<path d="M2.3333 0C2.14912 0 2 0.149122 2 0.333302V1.33331C2 1.51749 2.14912 1.66661 2.3333 1.66661C2.51748 1.66661 2.6666 1.51749 2.6666 1.33331V0.3334C2.6667 0.149122 2.51748 0 2.3333 0Z" fill="#0C0C0C"/>
<path d="M1.33331 2H0.333302C0.149122 2 0 2.14922 0 2.3333C0 2.51739 0.149122 2.6666 0.333302 2.6666H1.33331C1.51749 2.6666 1.66661 2.51748 1.66661 2.3333C1.66661 2.14912 1.51749 2 1.33331 2Z" fill="#0C0C0C"/>
<path d="M1.33331 17.3334H0.333302C0.149122 17.3334 0 17.4825 0 17.6667C0 17.8509 0.149122 18 0.333302 18H1.33331C1.51749 18 1.66661 17.8509 1.66661 17.6667C1.66661 17.4825 1.51749 17.3334 1.33331 17.3334Z" fill="#0C0C0C"/>
<path d="M2.3333 18.3334C2.14912 18.3334 2 18.4826 2 18.6667V19.6667C2 19.8509 2.14912 20 2.3333 20C2.51748 20 2.6666 19.8509 2.6666 19.6667V18.6667C2.6667 18.4826 2.51748 18.3334 2.3333 18.3334Z" fill="#0C0C0C"/>
<path d="M17.6663 18.3334C17.4821 18.3334 17.333 18.4826 17.333 18.6667V19.6667C17.333 19.8509 17.4821 20 17.6663 20C17.8505 20 17.9996 19.8509 17.9996 19.6667V18.6667C17.9996 18.4826 17.8505 18.3334 17.6663 18.3334Z" fill="#0C0C0C"/>
<path d="M19.6663 17.3334H18.6663C18.4821 17.3334 18.333 17.4825 18.333 17.6667C18.333 17.8509 18.4822 18 18.6663 18H19.6663C19.8505 18 19.9996 17.8509 19.9996 17.6667C19.9996 17.4825 19.8505 17.3334 19.6663 17.3334Z" fill="#0C0C0C"/>
<path d="M19.6663 2H18.6663C18.4821 2 18.333 2.14912 18.333 2.3333C18.333 2.51748 18.4822 2.6666 18.6663 2.6666H19.6663C19.8505 2.6666 19.9996 2.51748 19.9996 2.3333C19.9996 2.14912 19.8505 2 19.6663 2Z" fill="#0C0C0C"/>
<path d="M17.6663 0C17.4821 0 17.333 0.149122 17.333 0.333302V1.33331C17.333 1.51749 17.4821 1.66661 17.6663 1.66661C17.8505 1.66661 17.9996 1.51749 17.9996 1.33331V0.3334C17.9996 0.149122 17.8505 0 17.6663 0Z" fill="#0C0C0C"/>
</svg>
