<svg width="21" height="20" viewBox="0 0 21 20" fill="none" xmlns="http://www.w3.org/2000/svg">
<path d="M15.9189 12.3201C15.6599 12.5711 15.5409 12.9341 15.5999 13.2901L16.4889 18.2101C16.5639 18.6271 16.3879 19.0491 16.0389 19.2901C15.6969 19.5401 15.2419 19.5701 14.8689 19.3701L10.4399 17.0601C10.2859 16.9781 10.1149 16.9341 9.93987 16.9291H9.66887C9.57487 16.9431 9.48287 16.9731 9.39888 17.0191L4.96888 19.3401C4.74988 19.4501 4.50188 19.4891 4.25888 19.4501C3.66688 19.3381 3.27188 18.7741 3.36888 18.1791L4.25888 13.2591C4.31788 12.9001 4.19888 12.5351 3.93988 12.2801L0.328876 8.78012C0.0268758 8.48712 -0.0781242 8.04712 0.0598758 7.65012C0.193876 7.25412 0.535876 6.96512 0.948876 6.90012L5.91888 6.17912C6.29688 6.14012 6.62887 5.91012 6.79887 5.57012L8.98887 1.08012C9.04087 0.980122 9.10787 0.888122 9.18888 0.810122L9.27887 0.740122C9.32587 0.688122 9.37987 0.645122 9.43987 0.610122L9.54887 0.570122L9.71887 0.500122H10.1399C10.5159 0.539122 10.8469 0.764122 11.0199 1.10012L13.2389 5.57012C13.3989 5.89712 13.7099 6.12412 14.0689 6.17912L19.0389 6.90012C19.4589 6.96012 19.8099 7.25012 19.9489 7.65012C20.0799 8.05112 19.9669 8.49112 19.6589 8.78012L15.9189 12.3201Z" fill="#0C0C0C"/>
</svg>
