<svg width="28" height="28" viewBox="0 0 28 28" fill="none" xmlns="http://www.w3.org/2000/svg">
<path d="M14.0013 27.3333C21.3651 27.3333 27.3346 21.3638 27.3346 14C27.3346 6.63619 21.3651 0.666656 14.0013 0.666656C6.63751 0.666656 0.667969 6.63619 0.667969 14C0.667969 21.3638 6.63751 27.3333 14.0013 27.3333Z" fill="white"/>
<path d="M6.76872 13.7111L19.6243 8.75445C20.2209 8.5389 20.7421 8.90001 20.5487 9.80223L20.5498 9.80112L18.3609 20.1133C18.1987 20.8445 17.7643 21.0222 17.1565 20.6778L13.8232 18.2211L12.2154 19.77C12.0376 19.9478 11.8876 20.0978 11.5432 20.0978L11.7798 16.7056L17.9576 11.1245C18.2265 10.8878 17.8976 10.7545 17.5432 10.99L9.90872 15.7967L6.61761 14.77C5.90316 14.5433 5.88761 14.0556 6.76872 13.7111Z" fill="#0C0C0C"/>
</svg>
