<svg width="20" height="20" viewBox="0 0 20 20" fill="none" xmlns="http://www.w3.org/2000/svg">
<path d="M10 0C4.478 0 0 4.478 0 10C0 15.522 4.478 20 10 20C15.522 20 20 15.522 20 10C20 4.478 15.522 0 10 0ZM10.2119 15.8223C10.2118 15.8223 10.2121 15.8223 10.2119 15.8223H10.2095C9.20776 15.8218 8.22342 15.5707 7.34924 15.094L4.17648 15.9261L5.02563 12.8255C4.5018 11.9182 4.22623 10.8888 4.22668 9.83429C4.22806 6.53534 6.91299 3.85147 10.2119 3.85147C11.8129 3.85208 13.3157 4.47525 14.4456 5.60608C15.5757 6.73706 16.1977 8.24036 16.1971 9.83902C16.1957 13.1381 13.5104 15.8223 10.2119 15.8223Z" fill="#0C0C0C"/>
</svg>
