<svg width="28" height="28" viewBox="0 0 28 28" fill="none" xmlns="http://www.w3.org/2000/svg">
<path d="M14.0013 0.666656C6.63863 0.666656 0.667969 6.63732 0.667969 14C0.667969 21.3627 6.63863 27.3333 14.0013 27.3333C21.364 27.3333 27.3346 21.3627 27.3346 14C27.3346 6.63732 21.364 0.666656 14.0013 0.666656ZM14.2839 21.7631C14.2837 21.7631 14.2841 21.7631 14.2839 21.7631H14.2806C12.945 21.7624 11.6325 21.4276 10.467 20.792L6.23661 21.9014L7.36881 17.7673C6.67037 16.5576 6.30294 15.1851 6.30355 13.779C6.30538 9.38044 9.88529 5.80195 14.2839 5.80195C16.4185 5.80276 18.4223 6.63366 19.9288 8.14143C21.4356 9.6494 22.2649 11.6538 22.264 13.7853C22.2622 18.1842 18.6819 21.7631 14.2839 21.7631Z" fill="white"/>
<path d="M14.2842 7.14908C10.6255 7.14908 7.65007 10.1233 7.64844 13.7793C7.64803 15.0322 7.99878 16.2523 8.66264 17.308L8.82031 17.5588L8.15015 20.0057L10.6605 19.3474L10.9028 19.491C11.9211 20.0952 13.0885 20.4149 14.2787 20.4153H14.2813C17.9371 20.4153 20.9126 17.4408 20.9142 13.7846C20.9149 12.0128 20.2256 10.3469 18.9733 9.09366C17.7211 7.8404 16.0556 7.14969 14.2842 7.14908ZM18.1856 16.6301C18.0193 17.0956 17.2228 17.5206 16.8397 17.578C16.4961 17.6292 16.0615 17.6506 15.5838 17.499C15.2941 17.4071 14.9228 17.2844 14.4469 17.0791C12.4468 16.2156 11.1405 14.2023 11.0408 14.0692C10.9411 13.9362 10.2266 12.9883 10.2266 12.0071C10.2266 11.026 10.7417 10.5437 10.9244 10.3443C11.1073 10.1447 11.3234 10.0948 11.4562 10.0948C11.5891 10.0948 11.7221 10.0961 11.8383 10.1018C11.9608 10.1079 12.1252 10.0552 12.2869 10.444C12.4531 10.8431 12.8519 11.8242 12.9017 11.9239C12.9516 12.0238 12.9847 12.1401 12.9184 12.2732C12.8519 12.4062 12.6309 12.6933 12.42 12.9549C12.3315 13.0646 12.2161 13.1623 12.3325 13.3618C12.4487 13.5612 12.849 14.2141 13.4417 14.7427C14.2034 15.4218 14.8459 15.6322 15.0453 15.732C15.2445 15.8317 15.3608 15.8151 15.4772 15.6822C15.5934 15.5491 15.9757 15.1001 16.1085 14.9005C16.2414 14.701 16.3744 14.7343 16.5571 14.8009C16.74 14.8672 17.7203 15.3496 17.9196 15.4493C18.119 15.5491 18.2519 15.599 18.3017 15.6822C18.3518 15.7654 18.3518 16.1644 18.1856 16.6301Z" fill="white"/>
</svg>
