<svg width="20" height="20" viewBox="0 0 20 20" fill="none" xmlns="http://www.w3.org/2000/svg">
<path d="M10 0C4.47734 0 0 4.47714 0 10C0 15.5229 4.47734 20 10 20C15.5227 20 20 15.5229 20 10C20 4.47714 15.5227 0 10 0ZM16.8135 13.3379C16.6404 14.0888 16.0262 14.6427 15.287 14.7251C13.5362 14.9209 11.7643 14.9219 9.99959 14.9209C8.23489 14.9219 6.46261 14.9209 4.71141 14.7251C3.97217 14.6427 3.35836 14.0888 3.18568 13.3379C2.93954 12.2682 2.93954 11.101 2.93954 10C2.93954 8.89903 2.9424 7.73136 3.18854 6.6621C3.36123 5.9112 3.97504 5.35714 4.71427 5.27448C6.46547 5.07887 8.23775 5.07785 10.0025 5.07887C11.7668 5.07785 13.539 5.07887 15.2896 5.27448C16.0293 5.35714 16.6435 5.911 16.8162 6.6621C17.0623 7.73156 17.0603 8.89903 17.0603 10C17.0603 11.101 17.0596 12.2684 16.8135 13.3379Z" fill="#0C0C0C"/>
</svg>
