<svg width="28" height="28" viewBox="0 0 28 28" fill="none" xmlns="http://www.w3.org/2000/svg">
<path d="M11.5703 16.9225C13.5711 15.885 15.5544 14.8571 17.5559 13.8191C15.5484 12.7715 13.5656 11.7376 11.5703 10.6963C11.5703 12.7789 11.5703 14.8402 11.5703 16.9225Z" fill="white"/>
<path d="M14.0013 0.666656C6.63776 0.666656 0.667969 6.63617 0.667969 14C0.667969 21.3638 6.63776 27.3333 14.0013 27.3333C21.3648 27.3333 27.3346 21.3638 27.3346 14C27.3346 6.63617 21.3648 0.666656 14.0013 0.666656ZM23.086 18.4505C22.8552 19.4517 22.0362 20.1902 21.0506 20.3001C18.7162 20.5612 16.3537 20.5626 14.0008 20.5612C11.6478 20.5626 9.28478 20.5612 6.94984 20.3001C5.9642 20.1902 5.14579 19.4517 4.91554 18.4505C4.58735 17.0243 4.58735 15.468 4.58735 14C4.58735 12.532 4.59117 10.9751 4.91936 9.54945C5.14961 8.54826 5.96802 7.8095 6.95366 7.69929C9.2886 7.43849 11.6516 7.43713 14.0046 7.43849C16.357 7.43713 18.72 7.43849 21.0541 7.69929C22.0403 7.8095 22.8593 8.54799 23.0895 9.54945C23.4177 10.9754 23.415 12.532 23.415 14C23.415 15.468 23.4142 17.0246 23.086 18.4505Z" fill="white"/>
</svg>
