<svg width="24" height="24" viewBox="0 0 24 24" fill="none" xmlns="http://www.w3.org/2000/svg">
<circle cx="12" cy="12" r="10" fill="#0C0C0C"/>
<path fill-rule="evenodd" clip-rule="evenodd" d="M17.8117 10.1698C17.9323 10.2787 18 10.4263 18 10.5802C18 10.7341 17.9323 10.8817 17.8117 10.9906L12.4472 15.8302C12.3265 15.9389 12.1628 16 11.9923 16C11.8217 16 11.658 15.9389 11.5373 15.8302L6.17277 10.9906C6.05906 10.8805 5.99716 10.7349 6.0001 10.5845C6.00304 10.434 6.0706 10.2905 6.18855 10.1841C6.3065 10.0777 6.46562 10.0167 6.63239 10.0141C6.79917 10.0114 6.96057 10.0673 7.08261 10.1698L11.9923 14.599L16.9019 10.1698C17.0226 10.0611 17.1862 10 17.3568 10C17.5274 10 17.691 10.0611 17.8117 10.1698Z" fill="white"/>
</svg>
