<svg width="24" height="25" viewBox="0 0 24 25" fill="none" xmlns="http://www.w3.org/2000/svg">
<circle cx="12" cy="12.5" r="10" fill="white"/>
<path fill-rule="evenodd" clip-rule="evenodd" d="M17.8117 10.6698C17.9323 10.7787 18 10.9263 18 11.0802C18 11.2341 17.9323 11.3817 17.8117 11.4906L12.4472 16.3302C12.3265 16.4389 12.1628 16.5 11.9923 16.5C11.8217 16.5 11.658 16.4389 11.5373 16.3302L6.17277 11.4906C6.05906 11.3805 5.99716 11.2349 6.0001 11.0845C6.00304 10.934 6.0706 10.7905 6.18855 10.6841C6.3065 10.5777 6.46562 10.5167 6.63239 10.5141C6.79917 10.5114 6.96057 10.5673 7.08261 10.6698L11.9923 15.099L16.9019 10.6698C17.0226 10.5611 17.1862 10.5 17.3568 10.5C17.5274 10.5 17.691 10.5611 17.8117 10.6698Z" fill="#0C0C0C"/>
</svg>
