<svg width="20" height="10" viewBox="0 0 20 10" fill="none" xmlns="http://www.w3.org/2000/svg">
<path fill-rule="evenodd" clip-rule="evenodd" d="M19.6862 0.283068C19.8871 0.464551 20 0.710559 20 0.967055C20 1.22355 19.8871 1.46956 19.6862 1.65104L10.7453 9.71693C10.5441 9.89819 10.2714 10 9.98709 10C9.70277 10 9.43007 9.89819 9.2289 9.71693L0.287958 1.65104C0.0984381 1.46756 -0.00473605 1.22488 0.000167762 0.974123C0.00507348 0.723369 0.117674 0.484122 0.314251 0.306784C0.510826 0.129447 0.77603 0.0278648 1.05399 0.0234406C1.33195 0.0190163 1.60095 0.112095 1.80434 0.283066L9.98709 7.66497L18.1698 0.283068C18.371 0.101811 18.6437 -1.18571e-07 18.928 -9.37145e-08C19.2124 -6.88582e-08 19.4851 0.101811 19.6862 0.283068Z" fill="black"/>
</svg>
