<svg width="10" height="20" viewBox="0 0 10 20" fill="none" xmlns="http://www.w3.org/2000/svg">
<path fill-rule="evenodd" clip-rule="evenodd" d="M9.71693 0.313777C9.53545 0.112855 9.28944 -3.10595e-08 9.03294 -4.22713e-08C8.77645 -5.34831e-08 8.53044 0.112855 8.34896 0.313777L0.283066 9.25472C0.101809 9.45589 -4.2525e-07 9.72859 -4.37678e-07 10.0129C-4.50106e-07 10.2972 0.101809 10.5699 0.283066 10.7711L8.34896 19.712C8.53244 19.9016 8.77512 20.0047 9.02587 19.9998C9.27663 19.9949 9.51588 19.8823 9.69321 19.6857C9.87055 19.4892 9.97213 19.224 9.97656 18.946C9.98098 18.6681 9.8879 18.399 9.71693 18.1957L2.33503 10.0129L9.71693 1.83016C9.89819 1.62899 10 1.35629 10 1.07197C10 0.787646 9.89819 0.514948 9.71693 0.313777Z" fill="black"/>
</svg>
