<svg width="24" height="24" viewBox="0 0 24 24" fill="none" xmlns="http://www.w3.org/2000/svg">
<circle cx="12" cy="12" r="9.5" stroke="#0C0C0C"/>
<path fill-rule="evenodd" clip-rule="evenodd" d="M17.8117 14.8019C17.9323 14.6748 18 14.5026 18 14.3231C18 14.1435 17.9323 13.9713 17.8117 13.8443L12.4472 8.19815C12.3265 8.07127 12.1628 8 11.9923 8C11.8217 8 11.658 8.07127 11.5373 8.19815L6.17278 13.8443C6.05906 13.9727 5.99716 14.1426 6.0001 14.3181C6.00304 14.4936 6.0706 14.6611 6.18855 14.7853C6.3065 14.9094 6.46562 14.9805 6.63239 14.9836C6.79917 14.9867 6.96057 14.9215 7.08261 14.8019L11.9923 9.63452L16.9019 14.8019C17.0226 14.9287 17.1862 15 17.3568 15C17.5274 15 17.691 14.9287 17.8117 14.8019Z" fill="#0C0C0C"/>
</svg>
