<svg width="10" height="20" viewBox="0 0 10 20" fill="none" xmlns="http://www.w3.org/2000/svg">
<path fill-rule="evenodd" clip-rule="evenodd" d="M0.283068 0.313777C0.464551 0.112855 0.710559 -3.10595e-08 0.967055 -4.22713e-08C1.22355 -5.34831e-08 1.46956 0.112855 1.65104 0.313777L9.71693 9.25472C9.89819 9.45589 10 9.72859 10 10.0129C10 10.2972 9.89819 10.5699 9.71693 10.7711L1.65104 19.712C1.46756 19.9016 1.22488 20.0047 0.974125 19.9998C0.723372 19.9949 0.484124 19.8823 0.306787 19.6857C0.129449 19.4892 0.0278673 19.224 0.0234431 18.946C0.0190188 18.6681 0.112098 18.399 0.283069 18.1957L7.66497 10.0129L0.283068 1.83016C0.101811 1.62899 5.92854e-08 1.35629 4.68572e-08 1.07197C3.44291e-08 0.787646 0.101811 0.514948 0.283068 0.313777Z" fill="black"/>
</svg>
