<svg width="8" height="14" viewBox="0 0 8 14" fill="none" xmlns="http://www.w3.org/2000/svg">
<path fill-rule="evenodd" clip-rule="evenodd" d="M0.855704 0.542497C0.976693 0.40855 1.1407 0.333313 1.3117 0.333313C1.48269 0.333313 1.6467 0.40855 1.76769 0.542497L7.14495 6.50312C7.26579 6.63724 7.33366 6.81904 7.33366 7.00859C7.33366 7.19813 7.26579 7.37993 7.14495 7.51405L1.76769 13.4747C1.64537 13.601 1.48358 13.6698 1.31641 13.6665C1.14924 13.6633 0.989742 13.5882 0.871517 13.4571C0.753292 13.3261 0.68557 13.1493 0.682621 12.964C0.679671 12.7787 0.741724 12.5993 0.855705 12.4638L5.77697 7.00859L0.855704 1.55342C0.734866 1.41931 0.666992 1.23751 0.666992 1.04796C0.666992 0.85841 0.734866 0.676612 0.855704 0.542497Z" fill="white"/>
</svg>
