<svg width="20" height="10" viewBox="0 0 20 10" fill="none" xmlns="http://www.w3.org/2000/svg">
<path fill-rule="evenodd" clip-rule="evenodd" d="M19.6862 9.71693C19.8871 9.53545 20 9.28944 20 9.03294C20 8.77645 19.8871 8.53044 19.6862 8.34896L10.7453 0.283068C10.5441 0.10181 10.2714 8.505e-07 9.98709 8.75356e-07C9.70277 9.00213e-07 9.43007 0.10181 9.2289 0.283068L0.287958 8.34896C0.0984381 8.53244 -0.00473605 8.77512 0.000167762 9.02588C0.00507348 9.27663 0.117674 9.51588 0.314251 9.69322C0.510826 9.87055 0.77603 9.97214 1.05399 9.97656C1.33195 9.98098 1.60095 9.8879 1.80434 9.71693L9.98709 2.33503L18.1698 9.71693C18.371 9.89819 18.6437 10 18.928 10C19.2124 10 19.4851 9.89819 19.6862 9.71693Z" fill="black"/>
</svg>
