<svg width="20" height="20" viewBox="0 0 20 20" fill="none" xmlns="http://www.w3.org/2000/svg">
<circle cx="10" cy="10" r="10" fill="white"/>
<path fill-rule="evenodd" clip-rule="evenodd" d="M15.8117 12.8019C15.9323 12.6748 16 12.5026 16 12.3231C16 12.1435 15.9323 11.9713 15.8117 11.8443L10.4472 6.19815C10.3265 6.07127 10.1628 6 9.99225 6C9.82166 6 9.65804 6.07127 9.53734 6.19815L4.17278 11.8443C4.05906 11.9727 3.99716 12.1426 4.0001 12.3181C4.00304 12.4936 4.0706 12.6611 4.18855 12.7853C4.3065 12.9094 4.46562 12.9805 4.63239 12.9836C4.79917 12.9867 4.96057 12.9215 5.08261 12.8019L9.99225 7.63452L14.9019 12.8019C15.0226 12.9287 15.1862 13 15.3568 13C15.5274 13 15.691 12.9287 15.8117 12.8019Z" fill="#0C0C0C"/>
</svg>
