<svg width="24" height="24" viewBox="0 0 24 24" fill="none" xmlns="http://www.w3.org/2000/svg">
<circle cx="12" cy="12" r="10" fill="white"/>
<path fill-rule="evenodd" clip-rule="evenodd" d="M14.8302 6.18827C14.7213 6.06771 14.5737 6 14.4198 6C14.2659 6 14.1183 6.06771 14.0094 6.18827L9.16984 11.5528C9.06109 11.6735 9 11.8372 9 12.0077C9 12.1783 9.06109 12.342 9.16984 12.4627L14.0094 17.8272C14.1195 17.9409 14.2651 18.0028 14.4155 17.9999C14.566 17.997 14.7095 17.9294 14.8159 17.8114C14.9223 17.6935 14.9833 17.5344 14.9859 17.3676C14.9886 17.2008 14.9327 17.0394 14.8302 16.9174L10.401 12.0077L14.8302 7.0981C14.9389 6.97739 15 6.81378 15 6.64318C15 6.47259 14.9389 6.30897 14.8302 6.18827Z" fill="#0C0C0C"/>
</svg>
