<svg width="24" height="24" viewBox="0 0 24 24" fill="none" xmlns="http://www.w3.org/2000/svg">
<circle cx="12" cy="12" r="10" fill="white"/>
<path fill-rule="evenodd" clip-rule="evenodd" d="M9.5214 6.18827C9.63029 6.06771 9.7779 6 9.9318 6C10.0857 6 10.2333 6.06771 10.3422 6.18827L15.1817 11.5528C15.2905 11.6735 15.3516 11.8372 15.3516 12.0077C15.3516 12.1783 15.2905 12.342 15.1817 12.4627L10.3422 17.8272C10.2321 17.9409 10.0865 18.0028 9.93604 17.9999C9.78559 17.997 9.64204 17.9294 9.53563 17.8114C9.42923 17.6935 9.36828 17.5344 9.36563 17.3676C9.36297 17.2008 9.41882 17.0394 9.5214 16.9174L13.9505 12.0077L9.5214 7.0981C9.41265 6.97739 9.35156 6.81378 9.35156 6.64318C9.35156 6.47259 9.41265 6.30897 9.5214 6.18827Z" fill="#0C0C0C"/>
</svg>
