<svg width="188" height="81" viewBox="0 0 188 81" fill="none" xmlns="http://www.w3.org/2000/svg">
<path d="M35.0025 0L0 20.2464V60.7536L35.0025 81L70.0195 60.7536V20.2464L35.0025 0ZM64.7236 57.6908L35.0025 74.9459L5.28122 57.6908V23.3092L35.0025 6.05379L64.7236 23.3092V57.6908Z" fill="#087D3F"/>
<path d="M35.0024 11.8776L10.2754 26.1852V54.8149L35.0024 69.1224L59.7581 54.8149V54.8005L54.4626 51.752L35.0024 63.0112L15.5566 51.752V29.248L35.0024 17.9888L54.4626 29.248L59.7581 26.1995V26.1852L35.0024 11.8776Z" fill="#087D3F"/>
<path d="M20.4219 32.0664V48.9336L35.0026 57.3744L49.5834 48.9336L44.2878 45.8851L35.0026 51.2487L25.7174 45.8707V35.1292L35.0026 29.7513L44.2878 35.1149L49.5834 32.0664L35.0026 23.64L20.4219 32.0664Z" fill="#087D3F"/>
<path d="M115.584 24.3158C114.423 22.7006 112.873 21.4046 111.08 20.5476C109.286 19.6906 107.307 19.3002 105.323 19.4125C98.8651 19.4125 94.6881 23.4818 94.6881 29.8088C94.717 35.949 99.0228 40.2628 105.323 40.2628C107.312 40.374 109.298 39.9771 111.093 39.1095C112.887 38.2418 114.433 36.9315 115.584 35.3019L119.76 37.7607C116.732 42.4053 111.996 44.9506 105.409 44.9506C96.2392 44.9506 89.4219 39.1986 89.4219 29.8232C89.4219 20.4477 96.4105 14.6671 105.423 14.6671C111.895 14.6671 116.732 17.2267 119.775 21.9289L115.584 24.3158Z" fill="#0C0C0C"/>
<path d="M149.396 24.3158C148.239 22.7132 146.701 21.4252 144.922 20.5689C143.142 19.7126 141.178 19.315 139.207 19.4125C132.749 19.4125 128.572 23.4818 128.572 29.8088C128.5 35.949 132.834 40.2628 139.207 40.2628C141.196 40.374 143.181 39.9771 144.976 39.1095C146.771 38.2418 148.316 36.9315 149.468 35.3019L153.63 37.7607C150.615 42.4053 145.865 44.9506 139.278 44.9506C130.108 44.9506 123.291 39.1986 123.291 29.8232C123.291 20.4477 130.222 14.6671 139.207 14.6671C145.665 14.6671 150.515 17.2267 153.558 21.9289L149.396 24.3158Z" fill="#0C0C0C"/>
<path d="M163.517 15.343V26.5159H173.563L181.168 15.343H187.268L178.098 28.7591L188 44.2171H181.743L173.72 31.2755H163.517V44.2171H158.25V15.343H163.517Z" fill="#0C0C0C"/>
<path d="M95.7368 53.9089C95.4586 53.5216 95.0879 53.2097 94.6603 53.0013C94.232 52.7931 93.7582 52.6947 93.2829 52.7154C92.9425 52.6857 92.6007 52.7299 92.2792 52.8451C91.9578 52.9602 91.6652 53.1435 91.4219 53.3825C91.1778 53.6215 90.9875 53.9105 90.8654 54.2297C90.7434 54.5489 90.6918 54.8907 90.7131 55.2318C90.7032 55.57 90.7631 55.9067 90.8889 56.2206C91.0155 56.5344 91.2051 56.8186 91.4461 57.0552C91.6879 57.2918 91.976 57.4754 92.2914 57.5948C92.6075 57.7141 92.9448 57.7663 93.2829 57.7482C93.7643 57.7722 94.2441 57.6741 94.6785 57.463C95.1121 57.2519 95.4858 56.9345 95.7648 56.5404L96.7844 57.13C96.4183 57.7219 95.9005 58.204 95.2842 58.5255C94.6679 58.8468 93.9758 58.9956 93.2829 58.9561C92.7833 58.9875 92.2838 58.9162 91.813 58.7464C91.343 58.5766 90.9124 58.3121 90.5478 57.9693C90.1839 57.6264 89.8936 57.2123 89.695 56.7526C89.4964 56.293 89.394 55.7974 89.394 55.2965C89.394 54.7957 89.4964 54.3001 89.695 53.8404C89.8936 53.3807 90.1839 52.9667 90.5478 52.6238C90.9124 52.2809 91.343 52.0165 91.813 51.8467C92.2838 51.677 92.7833 51.6056 93.2829 51.637C93.9621 51.5963 94.6414 51.7373 95.2486 52.0455C95.8558 52.3538 96.3713 52.8182 96.7412 53.3913L95.7368 53.9089Z" fill="#0C0C0C"/>
<path d="M104.677 51.7664V52.9312H101.721V58.6829H100.458V52.9312H97.4727V51.7664H104.677Z" fill="#0C0C0C"/>
<path d="M109.829 51.7663C110.198 51.7384 110.57 51.7878 110.919 51.9115C111.269 52.0351 111.588 52.2303 111.858 52.4846C112.129 52.7389 112.343 53.0467 112.488 53.3885C112.632 53.7303 112.704 54.0985 112.699 54.4698C112.704 54.8399 112.633 55.207 112.488 55.5474C112.343 55.8878 112.128 56.1939 111.858 56.446C111.587 56.6981 111.266 56.8905 110.918 57.0108C110.568 57.131 110.197 57.1766 109.829 57.1443H106.959V58.7548H105.682V51.7663H109.829ZM106.959 55.9652H109.786C110.185 55.9652 110.57 55.8061 110.852 55.5229C111.134 55.2398 111.294 54.8558 111.294 54.4554C111.294 54.0549 111.134 53.6708 110.852 53.3878C110.57 53.1046 110.185 52.9455 109.786 52.9455H107.017L106.959 55.9652Z" fill="#0C0C0C"/>
<path d="M117.521 58.9562C116.809 58.9085 116.126 58.6532 115.558 58.2218C114.988 57.7904 114.558 57.2017 114.318 56.5281C114.079 55.8544 114.041 55.1254 114.21 54.4306C114.378 53.7358 114.746 53.1057 115.267 52.6175C115.79 52.1295 116.442 51.8049 117.145 51.6838C117.849 51.5626 118.572 51.6501 119.227 51.9355C119.88 52.221 120.437 52.692 120.828 53.2904C121.219 53.8889 121.427 54.5886 121.425 55.3037C121.427 55.806 121.324 56.303 121.125 56.764C120.926 57.2248 120.634 57.6396 120.268 57.9824C119.901 58.3252 119.468 58.5885 118.996 58.7561C118.523 58.9236 118.021 58.9918 117.521 58.9562ZM117.521 57.8489C118.024 57.8376 118.513 57.6775 118.926 57.3888C119.339 57.1002 119.657 56.6957 119.842 56.2263C120.026 55.7568 120.067 55.2434 119.961 54.7504C119.855 54.2574 119.606 53.8067 119.245 53.4551C118.884 53.1035 118.428 52.8665 117.933 52.7739C117.438 52.6813 116.927 52.7374 116.464 52.9349C116 53.1324 115.606 53.4625 115.33 53.884C115.053 54.3054 114.907 54.7994 114.91 55.3037C114.907 55.6416 114.973 55.9764 115.106 56.2872C115.238 56.5981 115.433 56.8783 115.678 57.1104C115.923 57.3424 116.213 57.5214 116.53 57.636C116.848 57.7508 117.185 57.7988 117.521 57.777V57.8489Z" fill="#0C0C0C"/>
<path d="M123.894 51.7664V57.0581L128.543 51.7664H129.821V58.7548H128.543V53.4631L123.908 58.7117H122.616V51.7664H123.894Z" fill="#0C0C0C"/>
<path d="M138.087 51.7664V52.9312H135.116V58.6829H133.84V52.9312H130.869V51.7664H138.087Z" fill="#0C0C0C"/>
<path d="M145.377 51.7664V52.9312H140.412V54.6423H144.947V55.7926H140.412V57.5182H145.564V58.6973H139.207V51.7664H145.377Z" fill="#0C0C0C"/>
<path d="M154.189 51.7664V58.7548H152.912V53.003H149.797L149.022 57.1012C148.971 57.5998 148.729 58.0588 148.346 58.3809C147.963 58.7031 147.469 58.8629 146.971 58.8267H146.252V57.5182H146.884C147.095 57.5426 147.307 57.4821 147.474 57.35C147.641 57.218 147.748 57.0251 147.774 56.8136L148.735 51.7232L154.189 51.7664Z" fill="#0C0C0C"/>
<path d="M156.815 51.7664V53.4488H159.469C159.835 53.4124 160.204 53.4536 160.553 53.5696C160.901 53.6856 161.221 53.8739 161.491 54.1222C161.762 54.3705 161.978 54.6733 162.124 55.0107C162.27 55.348 162.344 55.7125 162.34 56.0802C162.343 56.4497 162.27 56.8158 162.124 57.1552C161.979 57.4946 161.763 57.7998 161.493 58.0514C161.223 58.303 160.904 58.4956 160.555 58.6166C160.207 58.7377 159.837 58.7848 159.469 58.7548H155.538V51.7664H156.815ZM156.815 57.5182H159.369C160.403 57.5182 161.005 57.0005 161.005 56.0802C161.005 55.1599 160.403 54.6423 159.369 54.6423H156.815V57.5182Z" fill="#0C0C0C"/>
<path d="M164.665 51.7664V54.556H169.142V51.7664H170.42V58.7548H169.142V55.6632H164.665V58.7117H163.374V51.7664H164.665Z" fill="#0C0C0C"/>
<path d="M176.978 51.7664L179.949 58.7548H178.6L178.112 57.662H173.362L172.888 58.7548H171.454L174.567 51.7664H176.978ZM173.85 56.526H177.595L176.16 52.9167H175.356L173.85 56.526Z" fill="#0C0C0C"/>
<path d="M187.727 58.7117H186.436V57.0724H183.408L182.503 58.7117H181.068L182.159 56.7705C181.717 56.5644 181.344 56.2322 181.089 55.8153C180.834 55.3984 180.707 54.9154 180.724 54.4265C180.722 54.0489 180.799 53.6751 180.952 53.3298C181.104 52.9846 181.328 52.6759 181.61 52.4242C181.891 52.1725 182.222 51.9837 182.582 51.8703C182.941 51.7569 183.321 51.7214 183.695 51.7663H187.799L187.727 58.7117ZM183.681 52.9599C183.471 52.9362 183.26 52.9589 183.061 53.0261C182.862 53.0933 182.68 53.2034 182.528 53.3488C182.377 53.4941 182.259 53.6712 182.182 53.8673C182.105 54.0636 182.074 54.274 182.087 54.4842C182.086 54.687 182.127 54.8879 182.209 55.0736C182.292 55.2592 182.412 55.4253 182.562 55.5611C182.713 55.697 182.89 55.7994 183.083 55.8616C183.275 55.9238 183.479 55.9444 183.681 55.9221H186.436V52.9023L183.681 52.9599Z" fill="#0C0C0C"/>
<path d="M90.8425 63.6439V66.3475H93.2827L95.1195 63.6439H96.5545L94.3304 66.8792L96.7266 70.6327H95.2628L93.2827 67.584H90.8425V70.7045H89.5796V63.6439H90.8425Z" fill="#0C0C0C"/>
<path d="M100.975 70.8195C100.262 70.7744 99.5786 70.5217 99.0078 70.0924C98.437 69.6633 98.0041 69.0761 97.7623 68.4038C97.5197 67.7311 97.4796 67.002 97.6448 66.3064C97.8116 65.6113 98.1762 64.9794 98.697 64.4893C99.2163 63.9993 99.8682 63.6722 100.571 63.5484C101.274 63.4245 101.997 63.5094 102.653 63.7924C103.308 64.0754 103.867 64.5443 104.26 65.1413C104.652 65.738 104.862 66.4377 104.864 67.1523C104.863 67.6533 104.76 68.1491 104.561 68.6083C104.362 69.0682 104.072 69.4823 103.708 69.8253C103.343 70.1689 102.913 70.4341 102.443 70.6046C101.973 70.7757 101.474 70.8489 100.975 70.8195ZM100.975 69.6979C101.478 69.6861 101.967 69.5261 102.379 69.2374C102.792 68.9487 103.111 68.5443 103.295 68.0753C103.479 67.6056 103.52 67.0922 103.414 66.599C103.308 66.1059 103.06 65.6557 102.698 65.3039C102.337 64.9523 101.881 64.7152 101.386 64.6227C100.892 64.5301 100.381 64.5862 99.9167 64.7836C99.4543 64.9811 99.0594 65.3113 98.7827 65.7328C98.506 66.1542 98.3597 66.648 98.3627 67.1523C98.3498 67.4966 98.4097 67.8388 98.5371 68.1583C98.6652 68.4777 98.8577 68.767 99.1041 69.0068C99.3505 69.2465 99.6438 69.432 99.9668 69.5509C100.288 69.6698 100.632 69.7201 100.975 69.6979Z" fill="#0C0C0C"/>
<path d="M107.935 63.6439L110.662 69.1367L113.403 63.6439H115.225V70.6327H113.949V65.24H113.819L111.179 70.6327H110.03L107.39 65.24H107.247V70.6327H106.012V63.6439H107.935Z" fill="#0C0C0C"/>
<path d="M123.42 63.6439V70.6327H122.142V64.7942H117.837V70.6327H116.56V63.6439H123.42Z" fill="#0C0C0C"/>
<path d="M130.007 63.6439L132.964 70.6327H131.615L131.127 69.5398H126.376L125.903 70.6327H124.468L127.524 63.6439H130.007ZM126.865 68.4032H130.596L129.161 64.7942H128.371L126.865 68.4032Z" fill="#0C0C0C"/>
<path d="M135.331 63.6439V66.4337H139.808V63.6439H141.086V70.6327H139.808V67.584H135.331V70.6183H134.054V63.6439H135.331Z" fill="#0C0C0C"/>
<path d="M143.712 63.6439V68.9355L148.362 63.6439H149.64V70.6327H148.362V65.3839L143.727 70.6327H142.435V63.6439H143.712Z" fill="#0C0C0C"/>
<path d="M157.676 70.6327H156.427V69.0218H153.385L152.495 70.6614H151.06L152.15 68.72C151.709 68.5123 151.338 68.1798 151.083 67.763C150.828 67.347 150.7 66.8642 150.716 66.3762C150.711 66.0045 150.783 65.6368 150.928 65.2948C151.072 64.953 151.286 64.6452 151.557 64.3909C151.827 64.1366 152.146 63.9414 152.496 63.8178C152.846 63.6941 153.217 63.6447 153.586 63.6727H157.705L157.676 70.6327ZM153.629 64.8805C153.419 64.8546 153.206 64.8755 153.006 64.9417C152.804 65.0079 152.62 65.1177 152.467 65.2634C152.313 65.4088 152.194 65.5865 152.117 65.7844C152.04 65.9817 152.007 66.1933 152.022 66.405C152.02 66.6088 152.062 66.8113 152.145 66.9981C152.228 67.185 152.349 67.3515 152.501 67.4881C152.653 67.6239 152.832 67.7258 153.027 67.7872C153.222 67.8479 153.427 67.8675 153.629 67.8427H156.427V64.8231L153.629 64.8805Z" fill="#0C0C0C"/>
</svg>
