<svg width="267" height="81" viewBox="0 0 267 81" fill="none" xmlns="http://www.w3.org/2000/svg">
<path d="M0 1.28946V12.5349H3.9238V46.3931H16.0644V1.28946H0ZM67.5697 33.0612C69.9725 35.5129 72.9484 36.7414 76.4975 36.7414C80.0465 36.7414 83.0169 35.5129 85.4087 33.0612C87.8004 30.604 88.9963 27.5326 88.9963 23.8468C88.9963 20.1555 87.8004 17.0896 85.4087 14.649C83.0169 12.2029 80.052 10.9854 76.4975 10.9854C72.9484 10.9854 69.9725 12.2084 67.5697 14.649C65.167 17.0896 63.9711 20.1555 63.9711 23.8468C63.9711 27.5381 65.1725 30.604 67.5697 33.0612ZM94.2097 40.6597C89.3545 45.3416 83.4413 47.6881 76.481 47.6881C69.5151 47.6881 63.6074 45.3471 58.7522 40.6597C53.8971 35.9722 51.4723 30.3661 51.4723 23.8468C51.4723 17.322 53.8971 11.7214 58.7522 7.03395C63.6019 2.34649 69.5151 0 76.481 0C83.4413 0 89.349 2.34649 94.2097 7.03395C99.0648 11.7159 101.49 17.322 101.49 23.8468C101.49 30.3661 99.0648 35.9722 94.2097 40.6597ZM136.804 28.9991H140.65V33.8858C140.65 33.8858 140.513 34.0795 139.962 34.5721C139.251 35.2085 138.479 35.5627 137.206 36.0331C135.933 36.5035 134.522 36.7359 132.979 36.7359C129.303 36.7359 126.245 35.5073 123.803 33.0557C121.357 30.604 120.139 27.5326 120.139 23.8413C120.139 20.15 121.357 17.084 123.803 14.6435C126.245 12.2029 129.309 10.9798 132.979 10.9798C134.335 10.9798 135.68 11.1901 137.002 11.5941C138.33 12.0036 139.394 12.463 140.21 12.9777C141.025 13.4923 141.808 14.079 142.563 14.7431C143.318 15.4016 143.792 15.8665 144.007 16.1266C144.211 16.3923 144.381 16.6026 144.508 16.7741L151.904 9.03732L151.182 8.12972C150.724 7.49882 149.964 6.74617 148.911 5.86624C147.859 4.9863 146.624 4.10636 145.214 3.2209C143.803 2.34096 142.012 1.58831 139.84 0.957414C137.669 0.332051 135.382 0.0110684 132.979 0.0110684C126.002 0.0110684 120.089 2.35756 115.234 7.04502C110.379 11.7325 107.948 17.3331 107.948 23.8579C107.948 30.3827 110.379 35.9833 115.234 40.6707C120.089 45.3582 126.002 47.6991 132.979 47.6991C135.382 47.6991 137.708 47.3782 139.967 46.7417C142.221 46.0998 144.073 45.3803 145.511 44.5889C146.955 43.792 148.3 42.8733 149.556 41.8329C150.807 40.7925 151.634 40.073 152.031 39.6635C152.427 39.254 152.708 38.9275 152.879 38.6729V21.2789H136.815V29.0157L136.804 28.9991ZM187.135 19.0321L173.352 1.28946H162.452V46.3931H174.636V19.663L187.135 35.4465L199.662 19.663V46.3931H211.846V1.28946H200.946L187.135 19.0321ZM243.259 13.8742L247.425 27.0843H239.093L243.259 13.8742ZM236.524 1.295L219.512 46.3986H232.667L235.863 36.747H250.616L253.845 46.3986H267L249.993 1.295H236.53H236.524ZM38.1799 7.79767C33.6884 3.45333 28.0232 1.28946 21.1731 1.28946H18.8695V12.2638H21.1731C24.5568 12.2638 27.3233 13.3429 29.4726 15.5013C31.6218 17.6651 32.6965 20.4433 32.6965 23.8413C32.6965 27.1507 31.5557 29.9178 29.2797 32.1315C27.0037 34.3451 24.2978 35.4465 21.1676 35.4465H18.864V46.3931H21.1676C27.9956 46.3931 33.6609 44.2237 38.1578 39.8849C42.6547 35.5405 44.9087 30.1945 44.9087 23.8413C44.9087 17.488 42.6603 12.142 38.1743 7.79767H38.1799Z" fill="#0C0C0C"/>
<path d="M5.53321 74.4024C4.39795 73.2291 3.83032 71.8013 3.83032 70.1245C3.83032 68.4531 4.39795 67.0253 5.54423 65.8521C6.68499 64.6788 8.03518 64.0867 9.60029 64.0867C10.4986 64.0867 11.3417 64.2804 12.1188 64.6678C12.8958 65.0552 13.458 65.4425 13.7941 65.8299L14.3011 66.3834L13.0887 67.5898C13.0557 67.54 13.0061 67.4736 12.9454 67.3906C12.8793 67.302 12.7415 67.1471 12.5266 66.9202C12.3117 66.6933 12.0802 66.494 11.8267 66.3225C11.5787 66.1509 11.2536 66.0015 10.8513 65.8687C10.4545 65.7359 10.0357 65.6694 9.59478 65.6694C8.48707 65.6694 7.53368 66.1011 6.71806 66.9589C5.90795 67.8222 5.50565 68.8793 5.50565 70.13C5.50565 71.3863 5.90795 72.4378 6.71806 73.3011C7.53368 74.1644 8.48707 74.5906 9.59478 74.5906C10.2671 74.5906 10.9064 74.4301 11.5071 74.1091C12.1133 73.7881 12.5486 73.4671 12.8242 73.1406L13.2155 72.6647L14.4169 73.7549C14.3673 73.8213 14.2956 73.9099 14.2019 74.0205C14.1027 74.1312 13.8988 74.3249 13.5847 74.5961C13.2706 74.8728 12.9454 75.1052 12.5982 75.3155C12.2511 75.5258 11.8102 75.7195 11.2646 75.8966C10.7245 76.0737 10.1679 76.1623 9.6058 76.1623C8.02967 76.1623 6.67397 75.5756 5.53872 74.3969L5.53321 74.4024ZM15.6127 65.9074V64.3357H25.4663V65.9074H21.3772V75.9298H19.6963V65.9074H15.6127ZM30.8119 67.0087C29.9688 67.8997 29.5499 68.9402 29.5499 70.13C29.5499 71.3199 29.9688 72.3658 30.8119 73.2513C31.6551 74.1478 32.5975 74.5906 33.639 74.5906C34.631 74.5906 35.5238 74.1534 36.3063 73.2845C37.0889 72.4156 37.4912 71.3641 37.4912 70.1245C37.4912 68.8848 37.0944 67.8333 36.3063 66.9644C35.5183 66.0956 34.631 65.6584 33.639 65.6584C32.5975 65.6584 31.6551 66.1066 30.8119 66.9976V67.0087ZM29.5499 74.1146V81.0047H27.8691V64.3412H29.5499V66.1565C29.583 66.1122 29.6381 66.0347 29.7208 65.9406C29.8034 65.8465 29.9688 65.675 30.2278 65.4425C30.4813 65.2046 30.7568 64.9943 31.0544 64.8116C31.352 64.629 31.7378 64.463 32.2007 64.3191C32.6636 64.1752 33.1486 64.1033 33.639 64.1033C35.1105 64.1033 36.4 64.6954 37.5077 65.8797C38.6154 67.0696 39.172 68.4863 39.172 70.1411C39.172 71.7958 38.6209 73.2181 37.5132 74.4024C36.4111 75.5867 35.1215 76.1789 33.639 76.1789C33.1486 76.1789 32.6691 76.1069 32.2117 75.963C31.7488 75.8191 31.3685 75.6531 31.0544 75.4539C30.7403 75.2547 30.4703 75.061 30.2388 74.8562C30.0073 74.6514 29.831 74.4854 29.7153 74.3415L29.5499 74.1201V74.1146ZM50.1884 73.3066C51.0151 72.4433 51.4284 71.3918 51.4284 70.1355C51.4284 68.8848 51.0151 67.8278 50.1884 66.9644C49.3618 66.1066 48.3698 65.675 47.2125 65.675C46.0607 65.675 45.0688 66.1066 44.2421 66.9644C43.4155 67.8278 43.0022 68.8793 43.0022 70.13C43.0022 71.3697 43.4155 72.4267 44.2421 73.2956C45.0688 74.1644 46.0607 74.6016 47.2125 74.6016C48.3698 74.6016 49.3618 74.17 50.1884 73.3122V73.3066ZM43.0462 74.419C41.9 73.2568 41.3268 71.829 41.3268 70.13C41.3268 68.4365 41.9 67.0087 43.0462 65.841C44.198 64.6733 45.5868 64.0922 47.2235 64.0922C48.8603 64.0922 50.2491 64.6733 51.3898 65.841C52.5306 67.0087 53.1037 68.4365 53.1037 70.13C53.1037 71.8235 52.5306 73.2513 51.3898 74.419C50.2491 75.5812 48.8548 76.1678 47.2235 76.1678C45.5868 76.1678 44.198 75.5812 43.0462 74.419ZM64.7704 64.3357H66.2198V75.9298H64.5279V67.2412L57.5511 75.9298H56.1182V64.3357H57.799V73.0244L64.7759 64.3357H64.7704ZM68.6171 65.9074V64.3357H78.4706V65.9074H74.3815V75.9298H72.7007V65.9074H68.6171ZM91.0907 70.7664L81.7056 70.7443C81.7717 71.7903 82.196 72.6923 82.9896 73.456C83.7832 74.2198 84.7145 74.6016 85.7892 74.6016C86.5056 74.6016 87.1779 74.4411 87.7952 74.1201C88.4124 73.7992 88.8477 73.4782 89.1123 73.1517L89.5201 72.6757L90.6057 73.766C90.5561 73.8324 90.49 73.9209 90.4018 74.0316C90.3081 74.1423 90.1153 74.336 89.8122 74.6072C89.5146 74.8839 89.1839 75.1163 88.8367 75.3266C88.4895 75.5369 88.0376 75.7306 87.4865 75.9077C86.9354 76.0848 86.3678 76.1733 85.7892 76.1733C84.213 76.1733 82.8573 75.5867 81.7221 74.4079C80.5868 73.2347 80.0192 71.8069 80.0192 70.13C80.0192 68.4587 80.5813 67.0309 81.7056 65.8576C82.8298 64.6844 84.1524 64.0922 85.6624 64.0922C87.2385 64.0922 88.5557 64.6401 89.6138 65.7359C90.6719 66.8316 91.1954 68.2207 91.1954 69.892L91.0797 70.7664H91.0907ZM88.2636 66.6988C87.5527 66.0126 86.6819 65.6694 85.6734 65.6694C84.6649 65.6694 83.7832 66.0292 83.0337 66.7431C82.2842 67.457 81.8378 68.3037 81.7056 69.2888H89.5256C89.3988 68.2428 88.98 67.374 88.2636 66.6933V66.6988ZM95.4113 64.3412H103.832V75.9354H102.14V65.9129H97.0866V67.7282C97.0866 69.4327 97.004 70.855 96.8331 71.9895C96.6623 73.124 96.4143 73.9929 96.0726 74.585C95.7364 75.1772 95.3617 75.5922 94.9594 75.8191C94.5516 76.0516 94.0556 76.1678 93.4825 76.1678C93.2841 76.1678 93.0857 76.1457 92.8873 76.1069C92.6889 76.0682 92.5401 76.0239 92.4464 75.9796L92.2811 75.9298V74.2419C92.6007 74.3969 92.9258 74.4799 93.2455 74.4799C93.736 74.4799 94.1272 74.336 94.4083 74.0537C94.6893 73.7715 94.9263 73.1185 95.1192 72.1002C95.3121 71.0763 95.4058 69.6209 95.4058 67.7226V64.3357L95.4113 64.3412ZM109.348 74.3637H112.379C113.134 74.3637 113.735 74.1534 114.198 73.7217C114.656 73.29 114.881 72.7421 114.881 72.0614C114.881 71.3863 114.656 70.8328 114.198 70.4122C113.735 69.9861 113.129 69.7758 112.357 69.7758H109.348V74.3581V74.3637ZM115.433 69.2722C116.182 69.975 116.557 70.9103 116.557 72.0725C116.557 73.2291 116.182 74.1644 115.444 74.8673C114.7 75.5756 113.675 75.9298 112.379 75.9298H107.668V64.3357H109.348V68.2041H112.357C113.658 68.2041 114.683 68.5583 115.438 69.2667L115.433 69.2722ZM127.86 75.9354V70.8605H121.247V75.9354H119.566V64.3412H121.247V69.2999H127.86V64.3412H129.546V75.9354H127.86ZM135.911 69.2999L140.359 68.5694C140.359 67.7116 140.089 67.0143 139.548 66.4774C139.008 65.9462 138.32 65.675 137.471 65.675C136.859 65.675 136.286 65.8189 135.751 66.0956C135.217 66.3723 134.826 66.6601 134.583 66.9534L134.219 67.3629L133.139 66.2782C133.183 66.2118 133.249 66.1343 133.332 66.0347C133.415 65.9351 133.591 65.7635 133.872 65.5145C134.148 65.2654 134.44 65.0441 134.748 64.8449C135.052 64.6456 135.454 64.4741 135.95 64.3191C136.446 64.1641 136.958 64.0922 137.471 64.0922C138.788 64.0922 139.874 64.5183 140.744 65.3761C141.604 66.2339 142.039 67.291 142.039 68.5583V75.9298H140.359V74.3581C140.331 74.4079 140.276 74.4688 140.215 74.5574C140.149 74.6404 140 74.7842 139.763 74.9945C139.537 75.2048 139.289 75.3875 139.019 75.548C138.755 75.7085 138.408 75.8468 137.972 75.9796C137.537 76.1069 137.091 76.1678 136.628 76.1678C135.476 76.1678 134.506 75.8247 133.723 75.1384C132.935 74.4522 132.539 73.6719 132.539 72.7919C132.539 71.8235 132.831 71.0431 133.409 70.451C133.993 69.8588 134.826 69.4714 135.911 69.2943V69.2999ZM136.628 74.6072C137.713 74.6072 138.606 74.2474 139.312 73.5335C140.011 72.8196 140.359 71.8899 140.359 70.7498V70.0193L136.391 70.7498C134.952 71.021 134.225 71.7072 134.219 72.803C134.219 73.3232 134.434 73.7549 134.859 74.0925C135.283 74.4301 135.873 74.6016 136.628 74.6016V74.6072ZM145.153 68.2152C145.153 67.1083 145.544 66.1897 146.321 65.4481C147.098 64.712 148.118 64.3468 149.369 64.3468H154.29V75.9409H152.609V72.0725H149.237L146.839 75.9409H144.916L147.556 71.7183C147.466 71.6939 147.378 71.6643 147.291 71.6298C147.181 71.5855 146.988 71.4803 146.713 71.3088C146.443 71.1428 146.2 70.9377 145.991 70.7C145.781 70.4565 145.588 70.1245 145.412 69.6873C145.241 69.2556 145.153 68.7631 145.153 68.2152ZM152.609 65.9185H149.363C148.597 65.9185 147.986 66.1343 147.528 66.5604C147.071 66.9921 146.839 67.54 146.839 68.2207C146.839 68.8959 147.065 69.4493 147.523 69.8699C147.98 70.296 148.592 70.5063 149.363 70.5063H152.609V65.924V65.9185ZM164.392 72.6868V75.9464H162.711V64.3523H164.392V70.5063L170.162 64.3523H172.212L167.765 69.0564L172.697 75.9464H170.774L166.684 70.2739L164.397 72.6868H164.392ZM182.391 73.3177C183.217 72.4544 183.631 71.4029 183.631 70.1466C183.631 68.8959 183.217 67.8388 182.391 66.9755C181.564 66.1177 180.572 65.686 179.415 65.686C178.263 65.686 177.271 66.1177 176.444 66.9755C175.618 67.8388 175.204 68.8903 175.204 70.1411C175.204 71.3807 175.618 72.4378 176.444 73.3066C177.271 74.1755 178.263 74.6127 179.415 74.6127C180.572 74.6127 181.564 74.181 182.391 73.3232V73.3177ZM175.248 74.4301C174.102 73.2679 173.529 71.8401 173.529 70.1411C173.529 68.4476 174.102 67.0198 175.248 65.8521C176.4 64.6844 177.789 64.1033 179.426 64.1033C181.062 64.1033 182.451 64.6844 183.592 65.8521C184.733 67.0198 185.306 68.4476 185.306 70.1411C185.306 71.8345 184.733 73.2624 183.592 74.4301C182.451 75.5922 181.057 76.1789 179.426 76.1789C177.789 76.1789 176.4 75.5922 175.248 74.4301ZM198.416 67.3629L194.201 72.6813L189.996 67.3629V75.9354H188.315V64.3412H189.632L194.201 70.1355L198.769 64.3412H200.097V75.9354H198.416V67.3629ZM212.238 75.9354V65.9351H205.625V75.9354H203.944V64.3412H213.924V75.9354H212.238ZM220.289 69.2999L224.737 68.5694C224.737 67.7116 224.467 67.0143 223.927 66.4774C223.387 65.9462 222.698 65.675 221.849 65.675C221.237 65.675 220.664 65.8189 220.13 66.0956C219.595 66.3723 219.204 66.6601 218.961 66.9534L218.598 67.3629L217.517 66.2782C217.561 66.2118 217.628 66.1343 217.71 66.0347C217.793 65.9351 217.969 65.7635 218.25 65.5145C218.526 65.2654 218.818 65.0441 219.127 64.8449C219.43 64.6456 219.832 64.4741 220.328 64.3191C220.824 64.1641 221.336 64.0922 221.849 64.0922C223.166 64.0922 224.252 64.5183 225.122 65.3761C225.982 66.2339 226.418 67.291 226.418 68.5583V75.9298H224.737V74.3581C224.709 74.4079 224.654 74.4688 224.593 74.5574C224.527 74.6404 224.379 74.7842 224.142 74.9945C223.916 75.2048 223.668 75.3875 223.398 75.548C223.133 75.7085 222.786 75.8468 222.35 75.9796C221.915 76.1069 221.469 76.1678 221.006 76.1678C219.854 76.1678 218.884 75.8247 218.102 75.1384C217.313 74.4522 216.917 73.6719 216.917 72.7919C216.917 71.8235 217.209 71.0431 217.787 70.451C218.372 69.8588 219.204 69.4714 220.289 69.2943V69.2999ZM221.006 74.6072C222.091 74.6072 222.984 74.2474 223.69 73.5335C224.39 72.8196 224.737 71.8899 224.737 70.7498V70.0193L220.769 70.7498C219.33 71.021 218.603 71.7072 218.598 72.803C218.598 73.3232 218.812 73.7549 219.237 74.0925C219.661 74.4301 220.251 74.6016 221.006 74.6016V74.6072ZM238.553 75.9409V70.866H231.94V75.9409H230.259V64.3468H231.94V69.3054H238.553V64.3468H240.239V75.9409H238.553ZM252.732 64.3468H254.182V75.9409H252.49V67.2522L245.513 75.9409H244.08V64.3468H245.761V73.0354L252.738 64.3468H252.732ZM257.295 68.2152C257.295 67.1083 257.687 66.1897 258.464 65.4481C259.241 64.712 260.26 64.3468 261.511 64.3468H266.433V75.9409H264.752V72.0725H261.379L258.982 75.9409H257.058L259.698 71.7183C259.608 71.6939 259.52 71.6643 259.434 71.6298C259.323 71.5855 259.131 71.4803 258.855 71.3088C258.586 71.1428 258.342 70.9377 258.133 70.7C257.924 70.4565 257.731 70.1245 257.554 69.6873C257.384 69.2556 257.295 68.7631 257.295 68.2152ZM264.752 65.9185H261.506C260.74 65.9185 260.128 66.1343 259.671 66.5604C259.213 66.9921 258.982 67.54 258.982 68.2207C258.982 68.8959 259.208 69.4493 259.665 69.8699C260.123 70.296 260.734 70.5063 261.506 70.5063H264.752V65.924V65.9185Z" fill="#0C0C0C"/>
</svg>
