<svg width="297" height="81" viewBox="0 0 297 81" fill="none" xmlns="http://www.w3.org/2000/svg">
<path d="M99.2288 38.1296V37.4038H101.497V19.198H99.2288V18.472H106.69V19.198H104.407V27.5677H108.019C108.272 22.3384 111.108 18.1018 116.48 18.1018C121.852 18.1018 124.956 22.7089 124.956 28.2786C124.956 33.8485 122.181 38.5295 116.48 38.5295C110.779 38.5295 108.078 33.9226 108.048 28.4416H104.407V37.3297H106.69V38.0555L99.2288 38.1296ZM121.793 28.5749C121.793 23.9235 121.345 18.8276 116.495 18.8276C111.884 18.8276 111.182 23.5236 111.182 28.012C111.182 32.5004 111.69 37.8037 116.495 37.8037C121.3 37.8037 121.793 33.1077 121.793 28.5749Z" fill="#263A7C"/>
<path d="M126.702 38.1299V37.4039H128.791V25.094H126.702V24.3682H138.64V28.8122H137.611C137.44 27.9791 137.216 27.1576 136.939 26.3532C136.536 25.2717 136.088 25.0791 134.85 25.0791H131.388V37.3891H133.686V38.115L126.702 38.1299Z" fill="#263A7C"/>
<path d="M156.086 36.9742C154.095 37.9882 151.892 38.5211 149.654 38.5295C143.342 38.5295 140.566 33.8042 140.566 28.2935C140.566 22.783 143.551 18.1018 149.803 18.1018C151.857 18.097 153.89 18.5158 155.773 19.3314L155.862 24.9013H154.982C154.857 23.5791 154.54 22.282 154.042 21.0497C153.664 20.3543 153.097 19.7775 152.406 19.3849C151.715 18.9922 150.927 18.7993 150.132 18.8278C144.67 18.8278 143.685 23.6569 143.685 28.101C143.685 32.545 144.506 37.8038 150.087 37.8038C150.972 37.8753 151.857 37.6693 152.617 37.2148C153.377 36.7602 153.975 36.0803 154.325 35.2706C154.826 33.9964 155.152 32.6611 155.295 31.3006H156.161L156.086 36.9742Z" fill="#263A7C"/>
<path d="M161.101 38.1299V37.4039H163.399V25.1237H161.802C160.504 25.1237 160.026 26.3679 159.519 28.9455H158.489L158.668 24.3682H170.83L170.95 28.9455H169.95C169.443 26.3679 168.965 25.1237 167.637 25.1237H166.145V37.4039H168.398V38.1299H161.101Z" fill="#263A7C"/>
<path d="M172.307 43.5218V42.796H174.411V25.0938H172.307V24.368H177.038V26.5307C177.356 25.7444 177.913 25.0768 178.634 24.6223C179.355 24.1677 180.2 23.9494 181.051 23.9976C185.096 23.9976 187.022 27.4641 187.022 31.197C187.022 35.2114 184.812 38.5 181.051 38.5C180.252 38.5602 179.452 38.3912 178.745 38.0132C178.039 37.635 177.456 37.0636 177.068 36.367V42.796H179.29V43.5218H172.307ZM177.068 32.2043C177.068 35.4633 178.112 37.626 180.574 37.626C183.559 37.626 184.111 34.2782 184.111 31.0488C184.111 28.0863 183.156 24.8718 180.574 24.8718C177.41 24.8718 177.068 28.101 177.068 31.0488V32.2043Z" fill="#263A7C"/>
<path d="M189.215 31.3007C189.215 27.1233 191.678 23.9977 195.722 23.9977C199.767 23.9977 202.228 26.9605 202.228 31.1674C202.228 35.3745 199.692 38.5001 195.722 38.5001C191.753 38.5001 189.215 35.493 189.215 31.3007ZM199.289 31.1379C199.289 27.716 198.662 24.7384 195.722 24.7384C192.783 24.7384 192.125 27.8493 192.125 31.3304C192.125 34.8116 192.783 37.7743 195.722 37.7743C198.662 37.7743 199.289 34.5893 199.289 31.1379Z" fill="#263A7C"/>
<path d="M212.705 38.1298V37.404H214.944V25.6272L207.706 38.2187H205.81V25.094H203.706V24.368H210.482V25.094H208.542V34.4561L214.511 24.368H219.839V25.094H217.705V37.404H219.839V38.1298H212.705ZM215.884 18.0428C215.57 20.5462 214.286 22.0869 211.719 22.0869C209.154 22.0869 207.871 20.6054 207.527 18.0428L208.408 17.9095C208.603 18.6282 209.033 19.2628 209.63 19.7152C210.225 20.1677 210.954 20.4129 211.706 20.4129C212.455 20.4129 213.185 20.1677 213.781 19.7152C214.376 19.2628 214.807 18.6282 215.004 17.9095L215.884 18.0428Z" fill="#263A7C"/>
<path d="M110.869 66.3051V65.5791H113.271V47.5956L103.362 66.4236H101.497V47.3734H99.2288V46.6476H106.765V47.3734H104.422V61.9795L112.54 46.6476H118.509V47.3734H116.256V65.5791H118.509V66.3051H110.869Z" fill="#263A7C"/>
<path d="M132.433 66.3047V65.5788H134.641V54.3206L129.657 66.3937H128.165L123.21 54.365V59.4609C123.169 61.5095 123.318 63.5577 123.658 65.5788H125.449V66.3047H120.121V65.5788H122.016C122.184 64.3219 122.254 63.0541 122.225 61.7866V53.2688H120.121V52.543H125.299L129.776 63.1051L134.253 52.543H139.432V53.2688H137.313V65.5788H139.432V66.3047H132.433Z" fill="#263A7C"/>
<path d="M150.027 66.3047V65.5788H151.952V53.3577H145.55V65.5788H147.475V66.3047H140.745V65.5788H142.879V53.2688H140.79V52.543H156.758V53.2688H154.639V65.5788H156.758V66.3047H150.027Z" fill="#263A7C"/>
<path d="M171.054 61.5352C170.857 63.006 170.112 64.3503 168.965 65.302C167.818 66.2538 166.354 66.744 164.861 66.6755C160.593 66.6755 158.265 63.4461 158.265 59.491C158.265 55.2987 160.593 52.1731 164.89 52.1731C165.671 52.1002 166.458 52.2008 167.195 52.4676C167.931 52.7342 168.599 53.1603 169.149 53.7148C169.699 54.2693 170.118 54.9384 170.375 55.6735C170.632 56.4088 170.721 57.1916 170.636 57.9651V58.3948H161.234C161.204 58.7743 161.204 59.1558 161.234 59.5354C161.234 63.1647 162.234 65.8608 165.293 65.8608C167.89 65.8608 169.561 64.2609 170.099 61.4167L171.054 61.5352ZM167.323 57.6244C167.98 57.6244 168.114 57.4911 168.114 57.1504C168.114 55.0469 167.353 52.8841 164.89 52.8841C162.428 52.8841 161.488 54.9875 161.264 57.6244H167.323Z" fill="#263A7C"/>
<path d="M172.562 71.7118V70.9712H174.665V53.195H172.562V52.4691H177.291V54.6319C177.613 53.8481 178.172 53.1831 178.891 52.7291C179.612 52.2752 180.455 52.0548 181.307 52.0988C185.365 52.0988 187.276 55.5651 187.276 59.2981C187.276 63.3126 185.067 66.6012 181.307 66.6012C180.506 66.665 179.704 66.4976 178.997 66.1191C178.289 65.7406 177.708 65.1672 177.322 64.468V70.8971H179.561V71.6377L172.562 71.7118ZM177.322 60.3796C177.322 63.6385 178.366 65.8012 180.829 65.8012C183.74 65.8012 184.365 62.4682 184.365 59.2241C184.365 56.2614 183.41 53.0469 180.829 53.0469C177.665 53.0469 177.322 56.2762 177.322 59.2241V60.3796Z" fill="#263A7C"/>
<path d="M197.77 66.3047V65.5788H199.993V53.8022L192.756 66.3937H190.861V53.2688H188.771V52.543H195.531V53.2688H193.622V62.6309L199.59 52.543H204.918V53.2688H202.798V65.5788H204.918V66.3047H197.77Z" fill="#263A7C"/>
<path d="M215.883 66.3049C215.634 65.533 215.498 64.73 215.48 63.92V64.0089C215.055 64.8783 214.373 65.5988 213.525 66.0749C212.678 66.5511 211.704 66.7605 210.735 66.6753C210.196 66.731 209.65 66.6709 209.137 66.4991C208.624 66.3273 208.153 66.0479 207.758 65.6797C207.364 65.3115 207.053 64.8631 206.849 64.3653C206.643 63.8673 206.548 63.3315 206.57 62.794C206.57 58.9722 210.227 59.0019 213.197 58.2759C213.989 58.1016 214.749 57.8068 215.451 57.402V56.4983C215.451 54.4246 215.255 52.8543 212.763 52.8543C212.187 52.7911 211.605 52.9294 211.121 53.2458C210.636 53.5622 210.278 54.0368 210.108 54.5874C209.909 55.3918 209.814 56.2182 209.824 57.0464H207.988V53.8024C209.435 52.7391 211.187 52.1675 212.988 52.1729C215.689 52.1729 217.151 52.7949 217.809 54.4541C218.064 55.1969 218.181 55.9803 218.15 56.7651V63.5792C218.108 64.2708 218.252 64.9611 218.569 65.5791H220.211V66.3049H215.883ZM215.42 58.2167C214.793 58.5137 214.15 58.7758 213.496 59.0019C211.376 59.6833 209.377 59.9943 209.377 62.7645C209.377 64.4235 210.077 65.7271 211.779 65.7271C214.555 65.7271 215.42 62.7645 215.42 60.4388V58.2167Z" fill="#263A7C"/>
<path d="M229.896 66.3051V65.5793H231.986V53.3581H226.988L226.33 60.913C226.107 63.5794 225.226 66.5865 222.107 66.5865C221.842 66.5948 221.575 66.5698 221.316 66.5125V64.4238C221.702 64.5924 222.117 64.6879 222.54 64.7051C224.286 64.7051 225.107 62.3202 225.345 60.2611C225.583 58.202 225.852 55.6245 226.076 53.3137H223.987V52.5877H236.807V53.3137H234.702V65.6236H236.807V66.3494L229.896 66.3051Z" fill="#263A7C"/>
<path d="M16.3857 81L0 30.9454L42.9041 0L85.7934 30.9454L69.4078 81H16.3857Z" fill="#263A7C"/>
<path d="M66.0219 76.2893H19.7599L5.47852 32.6342L42.9058 5.64401L80.3184 32.6342L66.0219 76.2893ZM21.2524 74.2748H64.5296L77.9605 33.3895L42.9058 8.13269L7.86623 33.3895L21.2524 74.2748Z" fill="#FECB88"/>
<path d="M42.8888 59.4909C50.6114 59.4909 56.8718 58.3635 56.8718 56.9727C56.8718 55.5818 50.6114 54.4544 42.8888 54.4544C35.1662 54.4544 28.9058 55.5818 28.9058 56.9727C28.9058 58.3635 35.1662 59.4909 42.8888 59.4909Z" fill="#FECB88"/>
<path d="M54.7866 49.3734L53.1449 37.6856L47.3847 48.3067L42.9077 36.1746L38.4308 48.3067L32.6853 37.6262L31.0437 49.3141L23.2688 40.4259L27.7457 54.0248C27.7457 54.0248 32.4913 52.5433 42.9674 52.5433C53.4435 52.5433 58.204 54.0248 58.204 54.0248L62.6809 40.4259L54.7866 49.3734ZM28.6859 52.262L27.1936 47.8919C27.1817 47.854 27.1829 47.8129 27.1972 47.7758C27.2114 47.7385 27.238 47.7071 27.2725 47.6866C27.3068 47.6661 27.3473 47.6577 27.3871 47.6628C27.4268 47.6677 27.4639 47.6859 27.4921 47.7142L31.0886 51.8176C30.0936 51.9755 29.2927 52.1237 28.6859 52.262ZM35.1028 51.3584L33.506 42.4703L38.1771 51.1361C37.0578 51.2695 36.0431 51.2695 35.1028 51.3584ZM42.8928 51.0472V40.6779L46.7878 51.1805C45.5939 51.0769 44.2956 51.0472 42.8928 51.0472ZM50.6976 51.3584L52.2795 42.4703L53.5778 51.6399C52.7272 51.5509 51.7572 51.4471 50.6976 51.3584Z" fill="#FECB88"/>
<path d="M42.8866 29.4639L43.5434 31.4489H45.6325L43.9463 32.6636L44.588 34.6486L42.8866 33.4339L41.2004 34.6486L41.842 32.6636L40.1558 31.4489H42.2451L42.8866 29.4639Z" fill="#FECB88"/>
<path d="M31.563 31.1381L32.4881 32.7972L34.3685 32.4268L33.0702 33.8194L33.9954 35.4637L32.2642 34.6785L30.966 36.0562L31.1899 34.1749L29.4587 33.3897L31.3241 33.0193L31.563 31.1381Z" fill="#FECB88"/>
<path d="M54.3352 31.1084L53.395 32.7527L51.5295 32.3971L52.8278 33.7748L51.9027 35.4338L53.6338 34.6339L54.9321 36.0264L54.6932 34.1451L56.4244 33.3452L54.5589 32.9896L54.3352 31.1084Z" fill="#FECB88"/>
<path d="M21.609 35.1523L22.5044 36.4856L24.0714 36.0411L23.0715 37.3003L23.9669 38.6483L22.4447 38.0854L21.4449 39.3594L21.5046 37.7447L19.9824 37.1966L21.5493 36.7522L21.609 35.1523Z" fill="#FECB88"/>
<path d="M64.1544 35.1376L63.259 36.4708L61.6921 36.0411L62.6919 37.3003L61.7965 38.6336L63.3187 38.0855L64.3185 39.3446L64.2438 37.7447L65.766 37.1819L64.2141 36.7522L64.1544 35.1376Z" fill="#FECB88"/>
<path d="M67.6618 78.6446H18.1318L2.82056 31.8786L42.9042 2.97742L82.973 31.8786L82.8685 32.1896L67.6618 78.6446ZM18.7884 77.7409H67.0053L81.9284 32.2193L42.9341 4.07362L3.92488 32.2193L18.7884 77.7409Z" fill="#FECB88"/>
</svg>
