<svg width="96" height="96" viewBox="0 0 96 96" fill="none" xmlns="http://www.w3.org/2000/svg">
<circle cx="48" cy="48" r="46" stroke="#EB5757" stroke-width="4"/>
<path fill-rule="evenodd" clip-rule="evenodd" d="M27.6329 68.3661C28.0532 68.7896 28.6065 69 29.1598 69C29.7125 69 30.2657 68.7869 30.6893 68.3661L48.0009 51.0549L65.3139 68.3661C65.7348 68.7896 66.2875 69 66.8408 69C67.3909 69 67.9436 68.7869 68.3671 68.3661C69.211 67.5222 69.211 66.1541 68.3671 65.3103L51.0562 47.9996L68.3671 30.6892C69.211 29.8448 69.211 28.4767 68.3671 27.6329C67.5232 26.789 66.1551 26.789 65.3113 27.6329L48.0001 44.9436L30.6893 27.6329C29.8449 26.789 28.4768 26.789 27.6329 27.6329C26.789 28.4767 26.789 29.8448 27.6329 30.6892L44.9446 47.999L27.6329 65.3103C26.789 66.1541 26.789 67.5222 27.6329 68.3661Z" fill="#EB5757"/>
</svg>
