<svg width="20" height="20" viewBox="0 0 20 20" fill="none" xmlns="http://www.w3.org/2000/svg">
<path d="M12.9814 5.32117H7.02045C6.069 5.32117 5.29492 6.09525 5.29492 7.0467V13.0076C5.29492 13.9591 6.069 14.7334 7.02045 14.7334H12.9814C13.9328 14.7334 14.7071 13.9593 14.7071 13.0076V7.0467C14.7071 6.09525 13.933 5.32117 12.9814 5.32117ZM10.0009 13.1257C8.29254 13.1257 6.90258 11.7357 6.90258 10.0272C6.90258 8.31878 8.29254 6.92882 10.0009 6.92882C11.7095 6.92882 13.0995 8.31878 13.0995 10.0272C13.0995 11.7355 11.7093 13.1257 10.0009 13.1257ZM13.1991 7.56943C12.7946 7.56943 12.4658 7.24055 12.4658 6.83635C12.4658 6.43215 12.7946 6.10327 13.1991 6.10327C13.6033 6.10327 13.9321 6.43215 13.9321 6.83635C13.9321 7.24055 13.6033 7.56943 13.1991 7.56943Z" fill="#808080"/>
<path d="M10.0002 8.23779C9.01399 8.23779 8.21094 9.0404 8.21094 10.0266C8.21094 11.0133 9.01399 11.8161 10.0002 11.8161C10.9868 11.8161 11.7892 11.0133 11.7892 10.0266C11.7892 9.04062 10.9866 8.23779 10.0002 8.23779Z" fill="#808080"/>
<path d="M10 0C4.47737 0 0 4.47737 0 10C0 15.5226 4.47737 20 10 20C15.5226 20 20 15.5226 20 10C20 4.47737 15.5226 0 10 0ZM16.0153 13.0074C16.0153 14.681 14.6541 16.0422 12.9805 16.0422H7.01954C5.34615 16.0422 3.98471 14.681 3.98471 13.0074V7.0465C3.98471 5.37311 5.34615 4.01168 7.01954 4.01168H12.9805C14.6541 4.01168 16.0153 5.37311 16.0153 7.0465V13.0074Z" fill="#808080"/>
</svg>
