<svg width="20" height="20" viewBox="0 0 20 20" fill="none" xmlns="http://www.w3.org/2000/svg">
<path d="M10 20C15.5228 20 20 15.5228 20 10C20 4.47715 15.5228 0 10 0C4.47715 0 0 4.47715 0 10C0 15.5228 4.47715 20 10 20Z" fill="#808080"/>
<path d="M4.57654 9.78338L14.2182 6.06588C14.6657 5.90422 15.0565 6.17505 14.9115 6.85172L14.9124 6.85088L13.2707 14.5851C13.149 15.1334 12.8232 15.2667 12.3674 15.0084L9.86737 13.1659L8.66154 14.3276C8.52821 14.4609 8.41571 14.5734 8.15737 14.5734L8.33487 12.0292L12.9682 7.84338C13.1699 7.66588 12.9232 7.56588 12.6574 7.74255L6.93154 11.3475L4.46321 10.5776C3.92737 10.4076 3.91571 10.0417 4.57654 9.78338Z" fill="white"/>
</svg>
