<svg width="20" height="20" viewBox="0 0 20 20" fill="none" xmlns="http://www.w3.org/2000/svg">
<path d="M10 0C4.478 0 0 4.478 0 10C0 15.522 4.478 20 10 20C15.522 20 20 15.522 20 10C20 4.478 15.522 0 10 0ZM10.2119 15.8223C10.2118 15.8223 10.2121 15.8223 10.2119 15.8223H10.2095C9.20776 15.8218 8.22342 15.5707 7.34924 15.094L4.17648 15.9261L5.02563 12.8255C4.5018 11.9182 4.22623 10.8888 4.22668 9.83429C4.22806 6.53534 6.91299 3.85147 10.2119 3.85147C11.8129 3.85208 13.3157 4.47525 14.4456 5.60608C15.5757 6.73706 16.1977 8.24036 16.1971 9.83902C16.1957 13.1381 13.5104 15.8223 10.2119 15.8223Z" fill="#808080"/>
<path d="M10.2131 4.86182C7.46915 4.86182 5.23755 7.0925 5.23633 9.8345C5.23602 10.7741 5.49909 11.6892 5.99698 12.481L6.11524 12.6691L5.61261 14.5043L7.49539 14.0105L7.67713 14.1183C8.44083 14.5714 9.31638 14.8112 10.209 14.8115H10.211C12.9529 14.8115 15.1845 12.5806 15.1857 9.83847C15.1861 8.50958 14.6692 7.26019 13.73 6.32025C12.7908 5.38031 11.5417 4.86227 10.2131 4.86182ZM13.1392 11.9726C13.0145 12.3217 12.4171 12.6404 12.1298 12.6835C11.8721 12.7219 11.5461 12.7379 11.1879 12.6243C10.9706 12.5553 10.6921 12.4633 10.3352 12.3093C8.83512 11.6617 7.85535 10.1517 7.78058 10.0519C7.70581 9.95215 7.16992 9.24124 7.16992 8.50531C7.16992 7.76953 7.55628 7.40775 7.6933 7.25821C7.83048 7.10852 7.99253 7.07114 8.09217 7.07114C8.19181 7.07114 8.2916 7.07205 8.37873 7.07632C8.47059 7.0809 8.59388 7.04138 8.71518 7.33298C8.83985 7.63235 9.13892 8.36813 9.1763 8.4429C9.21369 8.51782 9.23856 8.6051 9.18882 8.7049C9.13892 8.80469 8.97321 9.01999 8.81498 9.21622C8.7486 9.29846 8.66208 9.3717 8.74936 9.52139C8.83649 9.67093 9.13678 10.1606 9.58127 10.557C10.1526 11.0663 10.6344 11.2241 10.784 11.299C10.9334 11.3738 11.0206 11.3613 11.1079 11.2617C11.195 11.1619 11.4818 10.8251 11.5814 10.6754C11.681 10.5257 11.7808 10.5508 11.9179 10.6006C12.055 10.6504 12.7902 11.0122 12.9397 11.0869C13.0893 11.1619 13.1889 11.1992 13.2263 11.2617C13.2638 11.3241 13.2638 11.6233 13.1392 11.9726Z" fill="#808080"/>
</svg>
